<?xml version="1.0" encoding="UTF-8" standalone="no"?>
<svg
   xmlns:dc="http://purl.org/dc/elements/1.1/"
   xmlns:cc="http://creativecommons.org/ns#"
   xmlns:rdf="http://www.w3.org/1999/02/22-rdf-syntax-ns#"
   xmlns:svg="http://www.w3.org/2000/svg"
   xmlns="http://www.w3.org/2000/svg"
   xmlns:sodipodi="http://sodipodi.sourceforge.net/DTD/sodipodi-0.dtd"
   xmlns:inkscape="http://www.inkscape.org/namespaces/inkscape"
   width="1284.7239"
   height="837.76379"
   viewBox="0 0 1284.725 837.76376"
   fill="none"
   version="1.1"
   id="svg379"
   sodipodi:docname="Group 39.svg"
   inkscape:version="1.0.1 (3bc2e813f5, 2020-09-07)">
  <metadata
     id="metadata383">
    <rdf:RDF>
      <cc:Work
         rdf:about="">
        <dc:format>image/svg+xml</dc:format>
        <dc:type
           rdf:resource="http://purl.org/dc/dcmitype/StillImage" />
        <dc:title></dc:title>
      </cc:Work>
    </rdf:RDF>
  </metadata>
  <sodipodi:namedview
     pagecolor="#ffffff"
     bordercolor="#666666"
     borderopacity="1"
     objecttolerance="10"
     gridtolerance="10"
     guidetolerance="10"
     inkscape:pageopacity="0"
     inkscape:pageshadow="2"
     inkscape:window-width="1920"
     inkscape:window-height="1017"
     id="namedview381"
     showgrid="false"
     fit-margin-top="0"
     fit-margin-left="0"
     fit-margin-right="0"
     fit-margin-bottom="0"
     units="px"
     inkscape:zoom="0.46398317"
     inkscape:cx="663.69866"
     inkscape:cy="785.51631"
     inkscape:window-x="-8"
     inkscape:window-y="-8"
     inkscape:window-maximized="1"
     inkscape:current-layer="svg379" />
  <path
     d="M 1285,0 H 0 v 800 h 1185 c 55.23,0 100,-44.772 100,-100 z"
     fill="url(#paint0_linear)"
     id="path2"
     style="fill:url(#paint0_linear)" />
  <mask
     id="mask0"
     mask-type="alpha"
     maskUnits="userSpaceOnUse"
     x="0"
     y="0"
     width="1285"
     height="800">
    <path
       d="M 1285,0 H 0 v 800 h 1185 c 55.23,0 100,-44.772 100,-100 z"
       fill="url(#paint1_linear)"
       id="path4" />
  </mask>
  <g
     mask="url(#mask0)"
     id="g129">
    <path
       d="m 1325.57,344.525 h -10.83 c -2.24,0 -4.06,1.818 -4.06,4.061 v 244.278 c 0,3.084 -2.5,5.584 -5.59,5.584 -3.08,0 -5.58,-2.5 -5.58,-5.584 V 436.796 c 0,-5.523 -4.48,-10 -10,-10 h -10.46 c -5.52,0 -10,4.477 -10,10 v 9.794 c 0,5.523 -4.48,10 -10,10 h -65.98 c -4.21,0 -7.62,3.41 -7.62,7.617 v 4.234 c 0,1.869 -1.51,3.384 -3.38,3.384 -1.87,0 -3.39,1.515 -3.39,3.385 v 54.343 c 0,4.58 -3.71,8.292 -8.29,8.292 -4.58,0 -8.29,3.713 -8.29,8.292 v 36.217 c 0,5.523 -4.48,10 -10,10 h -0.99 c -5.52,0 -10,4.477 -10,10 v 52.975 c 0,2.056 -1.66,3.723 -3.72,3.723 -2.06,0 -3.72,-1.667 -3.72,-3.723 V 348.248 c 0,-1.682 -1.37,-3.046 -3.05,-3.046 -1.68,0 -3.05,-1.364 -3.05,-3.046 v -26.919 c 0,-2.897 -2.34,-5.246 -5.24,-5.246 -2.9,0 -5.25,-2.349 -5.25,-5.246 v -26.072 c 0,-1.963 -1.59,-3.554 -3.55,-3.554 -1.96,0 -3.55,-1.591 -3.55,-3.554 v -21.318 c 0,-5.523 -4.48,-10 -10,-10 h -25.36 c -5.52,0 -10,4.477 -10,10 v 21.318 c 0,1.963 -1.59,3.554 -3.55,3.554 -1.96,0 -3.56,1.591 -3.56,3.554 v 26.072 c 0,2.897 -2.34,5.246 -5.24,5.246 -2.9,0 -5.25,2.349 -5.25,5.246 v 27.088 c 0,1.402 -1.13,2.538 -2.54,2.538 -1.4,0 -2.53,1.137 -2.53,2.539 v 209.236 c 0,3.271 -2.66,5.923 -5.93,5.923 -3.27,0 -5.92,2.651 -5.92,5.923 v 83.291 c 0,4.019 -3.26,7.277 -7.28,7.277 h -6.6 c -0.37,0 -0.67,-0.304 -0.67,-0.678 0,-0.374 -0.31,-0.677 -0.68,-0.677 h -2.2 c -0.65,0 -1.18,-0.53 -1.18,-1.185 0,-0.654 0.53,-1.185 1.18,-1.185 h 1.18 c 0.94,0 1.7,-0.758 1.7,-1.692 0,-0.935 -0.76,-1.693 -1.7,-1.693 h -1.01 c -0.75,0 -1.35,-0.607 -1.35,-1.355 0,-0.747 0.6,-1.354 1.35,-1.354 h 1.01 c 0.94,0 1.7,-0.758 1.7,-1.693 0,-0.935 -0.76,-1.692 -1.7,-1.692 h -1.18 c -0.65,0 -1.18,-0.531 -1.18,-1.185 0,-0.655 0.53,-1.185 1.18,-1.185 h 1.18 c 0.94,0 1.7,-0.758 1.7,-1.693 0,-0.935 -0.76,-1.693 -1.7,-1.693 h -1.18 c -0.65,0 -1.18,-0.531 -1.18,-1.185 0,-0.654 0.53,-1.185 1.18,-1.185 h 1.18 c 0.94,0 1.7,-0.758 1.7,-1.693 0,-0.935 -0.76,-1.693 -1.7,-1.693 h -1.18 c -0.65,0 -1.18,-0.53 -1.18,-1.185 0,-0.654 0.53,-1.185 1.18,-1.185 h 1.18 c 0.94,0 1.7,-0.758 1.7,-1.692 0,-0.935 -0.76,-1.693 -1.7,-1.693 h -1.18 c -0.65,0 -1.18,-0.531 -1.18,-1.185 0,-0.655 0.53,-1.185 1.18,-1.185 h 1.18 c 0.94,0 1.7,-0.758 1.7,-1.693 0,-0.935 -0.76,-1.693 -1.7,-1.693 h -1.18 c -0.65,0 -1.18,-0.53 -1.18,-1.185 0,-0.654 0.53,-1.185 1.18,-1.185 h 1.18 c 0.94,0 1.7,-0.758 1.7,-1.693 0,-0.935 -0.76,-1.692 -1.7,-1.692 h -1.18 c -0.65,0 -1.18,-0.531 -1.18,-1.185 0,-0.655 0.53,-1.185 1.18,-1.185 h 1.18 c 0.94,0 1.7,-0.758 1.7,-1.693 0,-0.935 -0.76,-1.693 -1.7,-1.693 h -1.18 c -0.65,0 -1.18,-0.531 -1.18,-1.185 0,-0.654 0.53,-1.185 1.18,-1.185 h 1.18 c 0.94,0 1.7,-0.758 1.7,-1.693 0,-0.935 -0.76,-1.693 -1.7,-1.693 h -1.18 c -0.65,0 -1.18,-0.53 -1.18,-1.185 0,-0.654 0.53,-1.185 1.18,-1.185 h 1.18 c 0.94,0 1.7,-0.758 1.7,-1.692 0,-0.935 -0.76,-1.693 -1.7,-1.693 h -0.33 c -1.13,0 -2.03,-0.91 -2.03,-2.031 v -0.678 c 0,-1.122 0.9,-2.031 2.03,-2.031 h 0.33 c 0.94,0 1.7,-0.758 1.7,-1.693 0,-0.935 -0.76,-1.693 -1.7,-1.693 h -1.18 c -0.65,0 -1.18,-0.53 -1.18,-1.185 0,-0.654 0.53,-1.185 1.18,-1.185 h 1.18 c 0.94,0 1.7,-0.758 1.7,-1.693 0,-0.935 -0.76,-1.692 -1.7,-1.692 h -1.18 c -0.65,0 -1.18,-0.531 -1.18,-1.185 0,-0.655 0.53,-1.185 1.18,-1.185 h 1.18 c 0.94,0 1.7,-0.758 1.7,-1.693 0,-0.935 -0.76,-1.693 -1.7,-1.693 h -1.18 c -0.65,0 -1.18,-0.531 -1.18,-1.185 0,-0.654 0.53,-1.185 1.18,-1.185 h 1.18 c 0.94,0 1.7,-0.758 1.7,-1.693 0,-0.935 -0.76,-1.693 -1.7,-1.693 h -1.18 c -0.65,0 -1.18,-0.53 -1.18,-1.185 0,-0.654 0.53,-1.185 1.18,-1.185 h 1.18 c 0.94,0 1.7,-0.758 1.7,-1.692 0,-0.935 -0.76,-1.693 -1.7,-1.693 h -1.18 c -0.65,0 -1.18,-0.531 -1.18,-1.185 0,-0.655 0.53,-1.185 1.18,-1.185 h 1.18 c 0.94,0 1.7,-0.758 1.7,-1.693 0,-0.935 -0.76,-1.693 -1.7,-1.693 h -1.18 c -0.65,0 -1.18,-0.53 -1.18,-1.185 0,-0.654 0.53,-1.185 1.18,-1.185 h 1.18 c 0.94,0 1.7,-0.758 1.7,-1.693 0,-0.935 -0.76,-1.692 -1.7,-1.692 h -1.18 c -0.65,0 -1.18,-0.531 -1.18,-1.185 0,-0.655 0.53,-1.185 1.18,-1.185 h 1.18 c 0.94,0 1.7,-0.758 1.7,-1.693 0,-0.935 -0.76,-1.693 -1.7,-1.693 h -1.18 c -0.65,0 -1.18,-0.531 -1.18,-1.185 0,-0.655 0.53,-1.185 1.18,-1.185 h 1.18 c 0.94,0 1.7,-0.758 1.7,-1.693 0,-0.935 -0.76,-1.693 -1.7,-1.693 h -1.18 c -0.65,0 -1.18,-0.53 -1.18,-1.185 0,-0.654 0.53,-1.185 1.18,-1.185 h 1.18 c 0.94,0 1.7,-0.758 1.7,-1.692 0,-0.935 -0.76,-1.693 -1.7,-1.693 h -1.18 c -0.65,0 -1.18,-0.531 -1.18,-1.185 0,-0.655 0.53,-1.185 1.18,-1.185 h 1.18 c 0.94,0 1.7,-0.758 1.7,-1.693 0,-0.935 -0.76,-1.693 -1.7,-1.693 h -1.18 c -0.65,0 -1.18,-0.53 -1.18,-1.185 0,-0.654 0.53,-1.185 1.18,-1.185 h 1.18 c 0.94,0 1.7,-0.758 1.7,-1.693 0,-0.935 -0.76,-1.692 -1.7,-1.692 h -1.18 c -0.65,0 -1.18,-0.531 -1.18,-1.185 0,-0.655 0.53,-1.185 1.18,-1.185 h 1.18 c 0.94,0 1.7,-0.758 1.7,-1.693 0,-0.935 -0.76,-1.693 -1.7,-1.693 h -0.33 c -1.13,0 -2.03,-0.909 -2.03,-2.031 v -1.355 c 0,-1.122 0.9,-2.031 2.03,-2.031 h 0.33 c 0.94,0 1.7,-0.758 1.7,-1.693 0,-0.935 -0.76,-1.693 -1.7,-1.693 h -1.18 c -0.65,0 -1.18,-0.53 -1.18,-1.185 0,-0.654 0.53,-1.185 1.18,-1.185 h 1.18 c 0.94,0 1.7,-0.758 1.7,-1.693 0,-0.934 -0.76,-1.692 -1.7,-1.692 h -1.18 c -0.65,0 -1.18,-0.531 -1.18,-1.185 0,-0.655 0.53,-1.185 1.18,-1.185 h 1.18 c 0.94,0 1.7,-0.758 1.7,-1.693 0,-0.935 -0.76,-1.693 -1.7,-1.693 h -1.18 c -0.65,0 -1.18,-0.531 -1.18,-1.185 0,-0.654 0.53,-1.185 1.18,-1.185 h 1.18 c 0.94,0 1.7,-0.758 1.7,-1.693 0,-0.935 -0.76,-1.693 -1.7,-1.693 h -0.33 c -1.13,0 -2.03,-0.909 -2.03,-2.03 v -2.202 c 0,-0.841 -0.69,-1.523 -1.53,-1.523 -0.84,0 -1.52,-0.682 -1.52,-1.523 v -2.201 c 0,-2.057 -1.67,-3.725 -3.72,-3.725 h -0.34 c -2.25,0 -4.06,-1.818 -4.06,-4.061 v -10.837 c 0,-1.682 -1.367,-3.046 -3.049,-3.046 -1.683,0 -3.047,-1.363 -3.047,-3.046 v -11.585 c 0,-4.701 -3.274,-8.767 -7.867,-9.77 l -10.748,-2.345 c -2.575,-0.595 -4.4,-2.888 -4.4,-5.532 v -31.542 c 0,-0.654 -0.53,-1.184 -1.184,-1.184 -0.654,0 -1.185,0.53 -1.185,1.184 v 31.901 c 0,1.956 -1.816,3.406 -3.723,2.972 -1.907,-0.433 -3.723,1.016 -3.723,2.972 v 23.437 c 0,1.402 -1.136,2.538 -2.538,2.538 -1.402,0 -2.538,1.137 -2.538,2.539 v 11.344 c 0,2.243 -1.819,4.061 -4.062,4.061 h -0.845 c -1.776,0 -3.216,1.44 -3.216,3.217 v 1.693 c 0,0.841 -0.682,1.523 -1.523,1.523 -0.841,0 -1.523,0.682 -1.523,1.523 v 1.355 c 0,1.589 -1.289,2.878 -2.878,2.878 h -29.768 c -5.522,0 -10,4.477 -10,10 v 17.58 c 0,5.523 -4.477,10 -10,10 H 867.83 c -1.242,0 -2.473,0.232 -3.63,0.683 l -30.403,11.844 c -1.022,0.409 -1.692,1.399 -1.692,2.5 v 11.721 c 0,1.495 1.213,2.708 2.708,2.708 h 0.676 c 1.122,0 2.031,0.909 2.031,2.031 0,1.122 -0.909,2.031 -2.031,2.031 h -1.352 c -1.122,0 -2.032,0.91 -2.032,2.032 0,1.122 0.91,2.031 2.032,2.031 h 1.352 c 1.122,0 2.031,0.91 2.031,2.032 0,1.121 -0.909,2.031 -2.031,2.031 h -1.352 c -1.122,0 -2.032,0.909 -2.032,2.031 0,1.122 0.91,2.032 2.032,2.032 h 1.352 c 1.122,0 2.031,0.909 2.031,2.031 0,1.122 -0.909,2.031 -2.031,2.031 h -1.352 c -1.122,0 -2.032,0.91 -2.032,2.032 0,1.122 0.91,2.031 2.032,2.031 h 1.352 c 1.122,0 2.031,0.91 2.031,2.032 0,1.122 -0.909,2.031 -2.031,2.031 h -1.352 c -1.122,0 -2.032,0.91 -2.032,2.031 0,1.122 0.91,2.032 2.032,2.032 h 1.86 c 0.841,0 1.523,0.682 1.523,1.523 0,0.842 -0.682,1.524 -1.523,1.524 h -30.778 c -4.183,0 -7.924,-2.603 -9.377,-6.525 l -8.052,-21.73 c -1.401,-3.779 -6.749,-3.773 -8.14,0.01 -1.696,4.612 -8.822,3.289 -8.812,-1.625 0.007,-3.361 0.007,-6.721 0.007,-10.081 0,-4.74 0,-9.48 0,-14.22 0,-13.542 0,-27.085 -0.338,-40.627 0,-5.756 -0.339,-11.85 -0.339,-17.606 -0.338,-12.527 -0.677,-25.054 -1.354,-37.919 -0.338,-6.094 -0.338,-12.188 -0.677,-18.283 -0.676,-11.849 -1.015,-23.361 -1.692,-35.21 0,-1.355 -0.338,-2.709 -0.338,-4.063 -0.677,-10.496 -1.354,-20.653 -2.031,-31.148 -1.354,-18.96 -3.046,-37.919 -4.738,-56.879 -0.124,-1.729 -0.292,-3.503 -0.473,-5.289 -0.528,-5.22 -4.946,-9.269 -10.193,-9.269 h -63.42 c -4.854,0 -9.174,3.61 -9.174,8.464 -0.338,4.063 -0.677,8.125 -1.015,12.188 -0.339,3.386 -0.677,7.11 -1.016,10.496 -0.676,6.432 -1.015,12.865 -1.692,19.298 -0.338,3.047 -0.338,5.756 -0.677,8.803 -0.338,5.417 -0.677,10.834 -1.353,16.251 -0.339,2.37 -0.339,4.74 -0.339,6.771 -0.338,7.11 -1.015,14.22 -1.354,20.991 0,2.37 -0.338,4.74 -0.338,7.11 -0.339,7.448 -0.677,14.558 -1.016,22.007 0,1.692 -0.338,3.047 -0.338,4.74 -0.338,6.771 -0.677,13.881 -1.015,20.652 0,1.354 0,2.709 0,4.063 -0.339,7.787 -0.677,15.574 -0.677,23.361 0,1.693 0,3.047 0,4.74 -0.339,8.125 -0.339,16.251 -0.677,24.038 v 1.016 c 0,8.125 -0.338,16.251 -0.338,24.038 0,1.015 0,2.031 0,3.047 0,8.125 0,16.251 0,24.376 0,1.016 0,2.37 0,3.386 0,2.412 0,4.825 0,7.281 0,4.019 -3.258,7.277 -7.277,7.277 -4.019,0 -7.277,3.258 -7.277,7.277 v 81.261 c 0,4.766 -3.864,8.63 -8.631,8.63 h -7.784 c -0.467,0 -0.846,-0.378 -0.846,-0.846 0,-0.467 0.379,-0.846 0.846,-0.846 h 0.677 c 0.841,0 1.523,-0.682 1.523,-1.523 v -0.678 c 0,-0.842 -0.682,-1.523 -1.523,-1.523 -0.841,0 -1.523,-0.682 -1.523,-1.524 v -1.355 c 0,-0.841 0.682,-1.523 1.523,-1.523 0.841,0 1.523,-0.682 1.523,-1.523 v -0.678 c 0,-0.841 -0.682,-1.523 -1.523,-1.523 -0.841,0 -1.523,-0.682 -1.523,-1.523 v -1.694 c 0,-0.841 0.682,-1.523 1.523,-1.523 0.841,0 1.523,-0.682 1.523,-1.523 v -0.678 c 0,-0.841 -0.682,-1.523 -1.523,-1.523 -0.841,0 -1.523,-0.682 -1.523,-1.523 v -1.694 c 0,-0.841 0.682,-1.523 1.523,-1.523 0.841,0 1.523,-0.682 1.523,-1.523 v -0.678 c 0,-0.841 -0.682,-1.523 -1.523,-1.523 -0.841,0 -1.523,-0.682 -1.523,-1.523 v -1.694 c 0,-0.841 0.682,-1.523 1.523,-1.523 0.841,0 1.523,-0.682 1.523,-1.523 v -0.678 c 0,-0.842 -0.682,-1.523 -1.523,-1.523 -0.841,0 -1.523,-0.682 -1.523,-1.524 v -1.693 c 0,-0.841 0.682,-1.523 1.523,-1.523 0.841,0 1.523,-0.682 1.523,-1.523 v -0.679 c 0,-0.841 -0.682,-1.523 -1.523,-1.523 -0.841,0 -1.523,-0.681 -1.523,-1.523 v -1.693 c 0,-0.842 0.682,-1.523 1.523,-1.523 0.841,0 1.523,-0.682 1.523,-1.524 v -0.678 c 0,-0.841 -0.682,-1.523 -1.523,-1.523 -0.841,0 -1.523,-0.682 -1.523,-1.523 v -1.694 c 0,-0.841 0.682,-1.523 1.523,-1.523 0.841,0 1.523,-0.682 1.523,-1.523 v -0.678 c 0,-0.841 -0.682,-1.523 -1.523,-1.523 -0.841,0 -1.523,-0.682 -1.523,-1.523 v -1.694 c 0,-0.841 0.682,-1.523 1.523,-1.523 0.841,0 1.523,-0.682 1.523,-1.523 v -0.678 c 0,-0.841 -0.682,-1.523 -1.523,-1.523 -0.841,0 -1.523,-0.682 -1.523,-1.523 V 593.2 c 0,-0.841 0.682,-1.523 1.523,-1.523 0.841,0 1.523,-0.682 1.523,-1.523 v -0.678 c 0,-0.841 -0.682,-1.523 -1.523,-1.523 -0.841,0 -1.523,-0.682 -1.523,-1.523 v -1.694 c 0,-0.841 0.682,-1.523 1.523,-1.523 0.841,0 1.523,-0.682 1.523,-1.523 v -2.032 c 0,-0.842 -0.682,-1.523 -1.523,-1.523 -0.841,0 -1.523,-0.682 -1.523,-1.524 v -1.693 c 0,-0.841 0.682,-1.523 1.523,-1.523 0.841,0 1.523,-0.682 1.523,-1.523 v -0.678 c 0,-0.842 -0.682,-1.524 -1.523,-1.524 -0.841,0 -1.523,-0.681 -1.523,-1.523 v -2.032 c 0,-0.841 0.682,-1.523 1.523,-1.523 0.841,0 1.523,-0.682 1.523,-1.523 v -0.678 c 0,-0.841 -0.682,-1.523 -1.523,-1.523 -0.841,0 -1.523,-0.682 -1.523,-1.523 v -1.694 c 0,-0.841 0.682,-1.523 1.523,-1.523 0.841,0 1.523,-0.682 1.523,-1.523 v -0.678 c 0,-0.841 -0.682,-1.523 -1.523,-1.523 -0.841,0 -1.523,-0.682 -1.523,-1.523 v -1.694 c 0,-0.841 0.682,-1.523 1.523,-1.523 0.841,0 1.523,-0.682 1.523,-1.523 v -0.678 c 0,-0.842 -0.682,-1.524 -1.523,-1.524 -0.841,0 -1.523,-0.681 -1.523,-1.523 v -1.693 c 0,-0.841 0.682,-1.523 1.523,-1.523 0.841,0 1.523,-0.682 1.523,-1.523 v -0.679 c 0,-0.841 -0.682,-1.523 -1.523,-1.523 -0.841,0 -1.523,-0.682 -1.523,-1.523 v -1.693 c 0,-0.842 0.682,-1.524 1.523,-1.524 0.841,0 1.523,-0.681 1.523,-1.523 v -0.678 c 0,-0.841 -0.682,-1.523 -1.523,-1.523 -0.841,0 -1.523,-0.682 -1.523,-1.523 v -1.694 c 0,-0.841 0.682,-1.523 1.523,-1.523 0.841,0 1.523,-0.682 1.523,-1.523 v -0.678 c 0,-0.841 -0.682,-1.523 -1.523,-1.523 -0.841,0 -1.523,-0.682 -1.523,-1.523 v -1.694 c 0,-0.841 0.682,-1.523 1.523,-1.523 0.841,0 1.523,-0.682 1.523,-1.523 v -0.678 c 0,-0.841 -0.682,-1.523 -1.523,-1.523 -0.841,0 -1.523,-0.682 -1.523,-1.523 v -1.694 c 0,-0.841 0.682,-1.523 1.523,-1.523 0.841,0 1.523,-0.682 1.523,-1.523 v -2.032 c 0,-0.841 -0.682,-1.523 -1.523,-1.523 -0.841,0 -1.523,-0.682 -1.523,-1.523 v -1.694 c 0,-0.841 0.682,-1.523 1.523,-1.523 0.841,0 1.523,-0.682 1.523,-1.523 v -0.678 c 0,-0.842 -0.682,-1.524 -1.523,-1.524 -0.841,0 -1.523,-0.681 -1.523,-1.523 v -1.693 c 0,-0.842 0.682,-1.523 1.523,-1.523 0.841,0 1.523,-0.682 1.523,-1.524 v -0.678 c 0,-0.841 -0.682,-1.523 -1.523,-1.523 -0.841,0 -1.523,-0.682 -1.523,-1.523 v -1.693 c 0,-0.842 0.682,-1.524 1.523,-1.524 0.841,0 1.523,-0.681 1.523,-1.523 v -0.678 c 0,-0.841 -0.682,-1.523 -1.523,-1.523 -0.841,0 -1.523,-0.682 -1.523,-1.523 v -5.418 c 0,-0.841 0.682,-1.523 1.523,-1.523 0.841,0 1.523,-0.682 1.523,-1.523 v -1.016 c 0,-1.403 -1.137,-2.539 -2.539,-2.539 h -4.906 c -1.309,0 -2.37,-1.061 -2.37,-2.37 v -0.558 c 0,-1.001 0.811,-1.812 1.812,-1.812 1.49,0 2.344,-1.697 1.456,-2.893 l -12.141,-16.36 c -1.445,-1.945 -3.725,-3.093 -6.148,-3.093 h -0.207 c -4.114,0 -7.449,-3.334 -7.449,-7.448 0,-0.748 -0.677,-1.622 -0.677,-2.37 v -19.468 c 0,-0.654 -0.53,-1.184 -1.184,-1.184 -0.654,0 -1.185,0.53 -1.185,1.184 v 19.521 c 0,0.719 -0.676,1.598 -0.676,2.317 0,4.114 -3.335,7.448 -7.449,7.448 h -0.207 c -2.423,0 -4.703,1.148 -6.148,3.094 l -12.812,17.263 c -0.61,0.822 -0.023,1.989 1.001,1.989 0.688,0 1.246,0.558 1.246,1.246 v 1.124 c 0,1.309 -1.061,2.37 -2.37,2.37 h -4.906 c -1.402,0 -2.539,1.136 -2.539,2.539 v 0.678 c 0,1.028 0.833,1.861 1.861,1.861 1.028,0 1.862,0.834 1.862,1.862 v 4.741 c 0,1.028 -0.834,1.861 -1.862,1.861 -1.028,0 -1.861,0.834 -1.861,1.862 0,1.028 0.833,1.862 1.861,1.862 1.028,0 1.862,0.834 1.862,1.862 v 1.017 c 0,1.028 -0.834,1.861 -1.862,1.861 -1.028,0 -1.861,0.834 -1.861,1.862 0,1.029 0.833,1.863 1.861,1.863 1.028,0 1.862,0.833 1.862,1.861 v 1.017 c 0,1.028 -0.834,1.861 -1.862,1.861 -1.028,0 -1.861,0.834 -1.861,1.863 0,1.028 0.833,1.862 1.861,1.862 1.028,0 1.862,0.833 1.862,1.861 v 1.017 c 0,1.028 -0.834,1.862 -1.862,1.862 -1.028,0 -1.861,0.834 -1.861,1.862 0,1.028 0.833,1.862 1.861,1.862 1.028,0 1.862,0.833 1.862,1.861 v 1.017 c 0,1.028 -0.834,1.862 -1.862,1.862 -1.028,0 -1.861,0.834 -1.861,1.862 0,1.028 0.833,1.862 1.861,1.862 1.028,0 1.862,0.833 1.862,1.861 v 1.017 c 0,1.028 -0.834,1.862 -1.862,1.862 -1.028,0 -1.861,0.834 -1.861,1.862 0,1.028 0.833,1.862 1.861,1.862 1.028,0 1.862,0.833 1.862,1.862 v 1.016 c 0,1.029 -0.834,1.862 -1.862,1.862 -1.028,0 -1.861,0.834 -1.861,1.862 0,1.028 0.833,1.862 1.861,1.862 1.028,0 1.862,0.834 1.862,1.862 v 1.017 c 0,1.028 -0.834,1.861 -1.862,1.861 -1.028,0 -1.861,0.834 -1.861,1.862 0,1.028 0.833,1.862 1.861,1.862 1.028,0 1.862,0.834 1.862,1.862 v 1.017 c 0,1.028 -0.834,1.861 -1.862,1.861 -1.028,0 -1.861,0.834 -1.861,1.862 0,1.028 0.833,1.862 1.861,1.862 1.028,0 1.862,0.834 1.862,1.862 v 1.017 c 0,1.028 -0.834,1.861 -1.862,1.861 -1.028,0 -1.861,0.834 -1.861,1.862 0,1.029 0.833,1.863 1.861,1.863 1.028,0 1.862,0.833 1.862,1.861 v 1.017 c 0,1.028 -0.834,1.861 -1.862,1.861 -1.028,0 -1.861,0.835 -1.861,1.863 0,1.028 0.833,1.862 1.861,1.862 1.028,0 1.862,0.833 1.862,1.861 v 1.017 c 0,1.028 -0.834,1.862 -1.862,1.862 -1.028,0 -1.861,0.834 -1.861,1.862 0,1.028 0.833,1.862 1.861,1.862 1.028,0 1.862,0.833 1.862,1.861 v 1.017 c 0,1.028 -0.834,1.862 -1.862,1.862 -1.028,0 -1.861,0.834 -1.861,1.862 0,1.028 0.833,1.862 1.861,1.862 1.028,0 1.862,0.833 1.862,1.861 v 1.017 c 0,1.028 -0.834,1.862 -1.862,1.862 -1.028,0 -1.861,0.834 -1.861,1.862 0,1.028 0.833,1.862 1.861,1.862 h 1.354 c 0.28,0 0.508,0.227 0.508,0.508 0,0.28 -0.228,0.508 -0.508,0.508 h -17.767 c -2.431,0 -4.402,-1.971 -4.402,-4.402 v -3.724 -4.74 -3.724 -4.74 -3.724 -4.74 -3.724 -4.74 -3.724 -4.74 -3.724 -4.74 -3.725 -4.739 -3.725 -4.74 -3.724 -4.74 -3.724 -4.74 -3.724 -4.74 -3.724 -4.402 -3.724 -4.74 -3.724 -4.74 -3.724 -4.74 -3.724 -4.401 -3.725 -4.74 -3.724 -4.74 -3.724 -4.74 -3.724 -4.74 -3.724 -4.74 -3.724 -4.74 -3.724 -4.74 -3.725 -4.739 -3.725 -4.74 -3.724 -4.74 -3.724 -4.74 -3.724 -4.74 l -0.173,-7.291 c -0.1,-4.167 -2.774,-7.836 -6.711,-9.206 l -10.079,-3.507 c -3.291,-1.145 -6.728,1.298 -6.728,4.783 v 1.546 c 0,1.943 -1.575,3.518 -3.518,3.518 -1.971,0 -3.557,-1.619 -3.518,-3.589 l 0.444,-21.96 c 0.094,-4.662 -3.047,-8.771 -7.572,-9.903 l -21.387,-5.348 c -6.009,-1.503 -11.925,2.763 -12.397,8.939 l -3.159,41.341 -0.338,4.74 -0.339,3.724 -0.338,4.74 -0.339,3.724 -0.338,4.74 -0.339,3.724 -0.338,4.74 -0.338,3.724 -0.339,4.74 -0.338,3.725 -0.339,4.739 -0.338,3.725 -0.339,4.74 -0.338,3.724 -0.339,4.74 -0.338,3.724 -0.339,4.74 -0.338,3.724 -0.338,4.74 -0.339,3.724 -0.338,4.74 -0.339,3.724 -0.019,0.264 c -0.203,2.847 -1.614,5.472 -3.876,7.213 l -1.745,1.342 c -2.227,1.714 -3.621,4.292 -3.837,7.094 l -0.338,3.724 -0.338,4.74 -0.339,3.724 -0.338,4.74 -0.339,3.724 -0.338,4.74 -0.339,3.724 -0.338,4.402 c 0,0.935 -0.758,1.693 -1.693,1.693 h -27.906 c -5.523,0 -10,4.477 -10,10 v 38.585 c 0,2.898 -2.349,5.246 -5.246,5.246 -2.897,0 -5.246,2.349 -5.246,5.246 v 104.113 c 0,3.926 -3.182,7.108 -7.108,7.108 -3.925,0 -7.107,-3.182 -7.107,-7.108 V 239.569 c 0,-1.496 -1.212,-2.708 -2.708,-2.708 -1.495,0 -2.707,-1.212 -2.707,-2.708 v -37.061 c 0,-5.523 -4.478,-10 -10,-10 h -57.506 c -5.523,0 -10,4.477 -10,10 v 37.4 c 0,1.495 -1.212,2.708 -2.708,2.708 -1.495,0 -2.707,1.212 -2.707,2.707 v 180.289 c 0,2.71 -2.198,4.907 -4.908,4.907 h -3.892 c -0.561,0 -1.016,0.455 -1.016,1.016 v 0.339 c 0,0.374 -0.303,0.677 -0.677,0.677 -0.373,0 -0.676,0.303 -0.676,0.676 v 3.725 c 0,0.374 0.303,0.677 0.676,0.677 0.374,0 0.677,0.303 0.677,0.677 v 0.339 c 0,0.374 -0.303,0.677 -0.677,0.677 -0.373,0 -0.676,0.303 -0.676,0.677 v 3.724 c 0,0.374 0.303,0.677 0.676,0.677 0.374,0 0.677,0.303 0.677,0.677 V 440 c 0,0.374 -0.303,0.677 -0.677,0.677 -0.373,0 -0.676,0.303 -0.676,0.677 v 3.725 c 0,0.374 0.303,0.677 0.676,0.677 0.374,0 0.677,0.303 0.677,0.676 v 0.34 c 0,0.373 -0.303,0.676 -0.677,0.676 -0.373,0 -0.676,0.303 -0.676,0.677 v 3.725 c 0,0.374 0.303,0.677 0.676,0.677 0.374,0 0.677,0.303 0.677,0.677 v 0.339 c 0,0.374 -0.303,0.677 -0.677,0.677 -0.373,0 -0.676,0.303 -0.676,0.677 v 3.724 c 0,0.374 0.303,0.677 0.676,0.677 0.374,0 0.677,0.303 0.677,0.677 v 0.339 c 0,0.374 -0.303,0.677 -0.677,0.677 -0.373,0 -0.676,0.303 -0.676,0.677 v 3.725 c 0,0.373 0.303,0.677 0.676,0.677 0.374,0 0.677,0.303 0.677,0.676 v 0.339 c 0,0.374 -0.303,0.677 -0.677,0.677 -0.373,0 -0.676,0.303 -0.676,0.677 v 3.725 c 0,0.374 0.303,0.677 0.676,0.677 0.374,0 0.677,0.303 0.677,0.677 v 0.339 c 0,0.374 -0.303,0.677 -0.677,0.677 -0.373,0 -0.676,0.303 -0.676,0.677 v 3.724 c 0,0.374 0.303,0.677 0.676,0.677 0.374,0 0.677,0.303 0.677,0.677 v 0.339 c 0,0.374 -0.303,0.677 -0.677,0.677 -0.373,0 -0.676,0.303 -0.676,0.677 v 3.725 c 0,0.373 0.303,0.676 0.676,0.676 0.374,0 0.677,0.303 0.677,0.677 v 0.339 c 0,0.374 -0.303,0.677 -0.677,0.677 -0.373,0 -0.676,0.303 -0.676,0.677 v 3.725 c 0,0.374 0.303,0.677 0.676,0.677 0.374,0 0.677,0.303 0.677,0.677 v 0.339 c 0,0.374 -0.303,0.677 -0.677,0.677 -0.373,0 -0.676,0.303 -0.676,0.676 v 3.725 c 0,0.374 0.303,0.677 0.676,0.677 0.374,0 0.677,0.303 0.677,0.677 v 0.339 c 0,0.374 -0.303,0.677 -0.677,0.677 -0.373,0 -0.676,0.303 -0.676,0.677 v 3.724 c 0,0.374 0.303,0.677 0.676,0.677 0.374,0 0.677,0.303 0.677,0.677 v 0.339 c 0,0.374 -0.303,0.677 -0.677,0.677 -0.373,0 -0.676,0.303 -0.676,0.677 v 3.725 c 0,0.374 0.303,0.677 0.676,0.677 0.374,0 0.677,0.303 0.677,0.677 v 0.339 c 0,0.373 -0.303,0.676 -0.677,0.676 -0.373,0 -0.676,0.304 -0.676,0.677 v 3.725 c 0,0.374 0.303,0.677 0.676,0.677 0.374,0 0.677,0.303 0.677,0.677 v 0.339 c 0,0.374 -0.303,0.677 -0.677,0.677 -0.373,0 -0.676,0.303 -0.676,0.677 v 3.724 c 0,0.374 0.303,0.677 0.676,0.677 0.374,0 0.677,0.303 0.677,0.677 v 7.11 c 0,0.374 -0.303,0.677 -0.677,0.677 -0.373,0 -0.676,0.303 -0.676,0.677 v 3.725 c 0,0.374 0.303,0.677 0.676,0.677 0.374,0 0.677,0.303 0.677,0.677 v 0.339 c 0,0.374 -0.303,0.677 -0.677,0.677 -0.373,0 -0.676,0.303 -0.676,0.677 v 0.846 c 0,0.842 -0.683,1.524 -1.524,1.524 h -11.153 c -5.523,0 -10,-4.477 -10,-10 v -91.388 c 0,-5.523 -4.477,-10 -10,-10 h -39.568 c -5.522,0 -10,4.477 -10,10 v 53.145 c 0,4.767 -3.864,8.631 -8.63,8.631 h -6.599 c -1.122,0 -2.032,-0.91 -2.032,-2.032 0,-1.122 -0.909,-2.031 -2.031,-2.031 h -1.523 c -1.962,0 -3.553,-1.591 -3.553,-3.554 V 370.933 227.042 c 0,-1.496 -1.213,-2.708 -2.708,-2.708 -1.495,0 -2.708,-1.212 -2.708,-2.708 V 148 c 0,-5.523 -4.477,-10 -10,-10 H 92.0929 c -5.5228,0 -10,4.477 -10,10 v 73.627 c 0,1.495 -1.2123,2.707 -2.7076,2.707 -1.4953,0 -2.7076,1.212 -2.7076,2.708 v 358.205 c 0,3.551 -2.879,6.43 -6.4306,6.43 -3.5515,0 -6.4306,-2.879 -6.4306,-6.43 V 456.771 c 0,-5.523 -4.4771,-10 -10,-10 h -2.6764 c -5.5228,0 -10,-4.477 -10,-10 v -50.604 c 0,-2.056 -1.6668,-3.723 -3.7229,-3.723 -2.0561,0 -3.723,-1.667 -3.723,-3.723 v -15.394 c 0,-5.522 -4.4772,-10 -10,-10 h -85.5974 c -5.5228,0 -10,4.478 -10,10 v 15.394 c 0,2.056 -1.6669,3.723 -3.723,3.723 -2.0561,0 -3.7229,1.667 -3.7229,3.723 v 220.225 c 0,5.523 -4.4772,10 -10,10 h -4.3687 c -5.5228,0 -10.0002,-4.477 -10.0002,-10 V 475.054 c 0,-5.523 -4.477,-10 -10,-10 h -69.69 c -5.523,0 -10,4.477 -10,10 v 75.66 c 0,5.421 -4.394,9.815 -9.815,9.815 -5.421,0 -9.815,4.395 -9.815,9.815 v 77.198 c 0,3.178 -2.576,5.754 -5.754,5.754 -3.178,0 -5.754,-2.576 -5.754,-5.754 V 385.83 381.427 c 0,-1.308 -1.06,-2.369 -2.369,-2.369 h -1.353 c -0.561,0 -1.016,-0.454 -1.016,-1.015 0,-0.561 0.455,-1.016 1.016,-1.016 h 1.353 c 1.309,0 2.369,-1.061 2.369,-2.369 v -2.033 c 0,-1.309 -1.06,-2.369 -2.369,-2.369 h -1.353 c -0.561,0 -1.016,-0.455 -1.016,-1.016 0,-0.561 0.455,-1.016 1.016,-1.016 h 1.353 c 1.309,0 2.369,-1.06 2.369,-2.369 v -2.033 c 0,-1.308 -1.06,-2.369 -2.369,-2.369 h -1.353 c -0.561,0 -1.016,-0.455 -1.016,-1.016 0,-0.561 0.455,-1.015 1.016,-1.015 h 1.353 c 1.309,0 2.369,-1.061 2.369,-2.37 v -2.033 c 0,-1.308 -1.06,-2.369 -2.369,-2.369 h -1.692 c -0.374,0 -0.677,-0.303 -0.677,-0.677 0,-0.374 0.303,-0.677 0.677,-0.677 h 1.861 c 1.402,0 2.539,-1.137 2.539,-2.538 v -1.695 c 0,-1.402 -1.137,-2.538 -2.539,-2.538 h -1.522 c -0.561,0 -1.016,-0.455 -1.016,-1.016 0,-0.561 0.455,-1.016 1.016,-1.016 h 1.522 c 1.402,0 2.539,-1.136 2.539,-2.538 v -1.695 c 0,-1.402 -1.137,-2.538 -2.539,-2.538 h -1.522 c -0.561,0 -1.016,-0.455 -1.016,-1.016 0,-0.561 0.455,-1.015 1.016,-1.015 h 1.522 c 1.402,0 2.539,-1.137 2.539,-2.539 v -1.694 c 0,-1.402 -1.137,-2.539 -2.539,-2.539 h -1.522 c -0.561,0 -1.016,-0.454 -1.016,-1.015 0,-0.561 0.455,-1.016 1.016,-1.016 h 1.522 c 1.402,0 2.539,-1.137 2.539,-2.539 v -17.942 c 0,-3.287 -1.651,-6.326 -4.117,-8.499 -10.139,-8.93 -24.356,-28.008 -24.652,-54.307 v -0.677 -0.848 c 0,-1.588 -1.288,-2.876 -2.877,-2.876 h -1.014 c -1.029,0 -1.862,0.833 -1.862,1.862 0,1.028 -0.834,1.862 -1.862,1.862 h -2.2 c -2.243,0 -4.061,-1.819 -4.061,-4.062 v -53.326 c 0,-0.841 -0.682,-1.523 -1.523,-1.523 -0.841,0 -1.523,0.682 -1.523,1.523 v 56.88 c 0,0.468 -0.379,0.846 -0.847,0.846 -0.467,0 -0.846,-0.378 -0.846,-0.846 V 239.4 c 0,-1.028 -0.833,-1.862 -1.862,-1.862 h -2.368 c -1.028,0 -1.862,0.834 -1.862,1.862 0,1.029 -0.833,1.862 -1.862,1.862 h -7.106 c -1.029,0 -1.862,-0.833 -1.862,-1.862 0,-1.028 -0.834,-1.862 -1.862,-1.862 h -1.184 c -1.683,0 -3.046,1.364 -3.046,3.046 v 0.678 c 0,26.679 -7.36,45.995 -15.926,55.092 -2.292,2.434 -4.043,5.488 -4.043,8.831 v 13.439 c 0,0.094 0.076,0.17 0.169,0.17 0.094,0 0.169,0.076 0.169,0.169 v 3.556 c 0,1.682 1.364,3.046 3.046,3.046 h 2.031 c 0.561,0 1.016,0.455 1.016,1.016 0,0.561 -0.455,1.015 -1.016,1.015 h -2.031 c -1.682,0 -3.046,1.364 -3.046,3.047 v 0.679 c 0,1.682 1.364,3.046 3.046,3.046 h 2.031 c 0.561,0 1.016,0.454 1.016,1.015 0,0.561 -0.455,1.016 -1.016,1.016 h -2.2 c -1.776,0 -3.215,1.44 -3.215,3.215 v 0.341 c 0,1.776 1.439,3.215 3.215,3.215 h 2.538 c 0.374,0 0.678,0.304 0.678,0.678 0,0.374 -0.304,0.677 -0.678,0.677 h -2.538 c -1.776,0 -3.215,1.439 -3.215,3.215 v 0.341 c 0,1.775 1.439,3.215 3.215,3.215 h 2.2 c 0.561,0 1.016,0.455 1.016,1.016 0,0.561 -0.455,1.015 -1.016,1.015 h -2.2 c -1.776,0 -3.215,1.44 -3.215,3.216 v 0.34 c 0,1.776 1.439,3.216 3.215,3.216 h 2.2 c 0.561,0 1.016,0.454 1.016,1.015 0,0.561 -0.455,1.016 -1.016,1.016 h -2.2 c -1.776,0 -3.215,1.44 -3.215,3.215 v 0.341 c 0,1.776 1.439,3.215 3.215,3.215 h 2.2 c 0.561,0 1.016,0.455 1.016,1.016 0,0.561 -0.455,1.016 -1.016,1.016 h -2.2 c -1.776,0 -3.215,1.439 -3.215,3.215 v 0.341 c 0,1.775 1.439,3.215 3.215,3.215 h 2.2 c 0.561,0 1.016,0.455 1.016,1.016 0,0.561 -0.455,1.015 -1.016,1.015 h -2.369 c -1.869,0 -3.385,1.516 -3.385,3.385 v 133.399 c 0,5.234 -4.242,9.477 -9.476,9.477 -5.234,0 -9.477,4.242 -9.477,9.476 v 57.392 c 0,2.897 -2.349,5.246 -5.246,5.246 -2.897,0 -5.246,2.349 -5.246,5.246 v 52.837 c 0,2.152 -2.429,3.281 -4.58,3.2 -0.131,-0.005 -0.223,-0.012 -0.353,-0.031 -0.122,-0.017 -0.245,-0.034 -0.369,-0.052 -3.947,-0.552 -6.882,-3.896 -6.882,-7.881 V 529.134 c 0,-3.965 -2.343,-7.555 -5.972,-9.152 l -2.18,-0.96 c -0.204,-0.09 -0.425,-0.136 -0.648,-0.136 h -0.507 c -1.402,0 -2.539,-1.137 -2.539,-2.54 v -1.354 c 0,-0.654 -0.531,-1.185 -1.185,-1.185 -0.654,0 -1.184,0.531 -1.184,1.185 0,0.654 -0.531,1.185 -1.185,1.185 h -0.144 c -0.574,0 -1.041,0.466 -1.041,1.041 0,0.555 -0.435,1.012 -0.989,1.04 l -3.863,0.193 c -1.043,0.052 -1.917,-0.779 -1.917,-1.823 0,-0.691 -0.39,-1.323 -1.008,-1.633 l -0.915,-0.457 c -0.515,-0.257 -1.085,-0.383 -1.661,-0.366 l -19.799,0.591 c -1.115,0.033 -2.001,0.946 -2.001,2.061 0,1.139 -0.923,2.062 -2.061,2.062 h -0.308 c -1.308,0 -2.369,1.06 -2.369,2.369 v 22.503 c 0,5.523 -4.477,10 -10,10 h -17.568 c -5.523,0 -10,-4.477 -10,-10 V 385.49 c 0,-2.43 -1.97,-4.4 -4.4,-4.4 -2.43,0 -4.4,-1.97 -4.4,-4.4 v -29.275 c 0,-5.523 -4.477,-10 -10,-10 h -15.044 c -3.178,0 -5.755,-2.577 -5.755,-5.756 0,-3.179 -2.577,-5.755 -5.756,-5.755 h -3.887 c -5.142,0 -9.311,-4.169 -9.311,-9.311 0,-5.142 -4.168,-9.31 -9.31,-9.31 h -57.519 c -5.522,0 -10,4.477 -10,10 v 10.132 c 0,5.523 -4.477,10 -10,10 h -18.583 c -5.523,0 -10,4.477 -10,10 v 291.818 c 0,5.523 -4.477,10 -10,10 h -0.984 c -5.523,0 -10,4.477 -10,10 v 9.64 c 0,5.421 -4.395,9.815 -9.815,9.815 -5.421,0 -9.816,-4.394 -9.816,-9.815 v -73.967 c 0,-5.523 -4.477,-10 -10,-10 h -10.46 c -5.523,0 -10,-4.477 -10,-10 v -20.431 c 0,-0.232 -0.131,-0.444 -0.339,-0.548 -0.207,-0.104 -0.338,-0.316 -0.338,-0.548 v -3.545 c 0,-1.407 -0.467,-2.774 -1.329,-3.887 l -4.702,-6.076 c -1.356,-1.752 -2.092,-3.905 -2.092,-6.121 v -5.98 c 0,-0.919 -0.365,-1.801 -1.015,-2.452 -0.651,-0.65 -1.016,-1.532 -1.016,-2.451 v -14.646 c 0,-0.281 -0.227,-0.508 -0.508,-0.508 -0.28,0 -0.507,0.227 -0.507,0.508 v 14.885 c 0,0.766 -0.305,1.501 -0.846,2.043 -0.542,0.542 -0.846,1.277 -0.846,2.043 v 7.502 c 0,2.051 -0.631,4.053 -1.807,5.733 l -4.222,6.033 c -0.702,1.004 -1.079,2.199 -1.079,3.425 v 1.975 c 0,0.763 -0.381,1.475 -1.015,1.898 -0.635,0.423 -1.016,1.135 -1.016,1.897 v 0.869 c 0,1.225 -0.642,2.359 -1.692,2.989 l -0.417,0.251 c -0.791,0.475 -1.275,1.33 -1.275,2.253 0,0.961 -0.525,1.846 -1.369,2.306 l -0.493,0.269 c -1.147,0.626 -1.861,1.829 -1.861,3.136 v 31.029 c 0,3.829 -3.296,6.826 -7.108,6.463 -3.364,0 -6.092,-2.728 -6.092,-6.092 V 537.35 c 0,-5.523 -4.477,-10 -10,-10 h -21.63 c -5.522,0 -10,4.477 -10,10 v 27.737 c 0,5.523 -4.477,10 -10,10 h -6.399 c -5.523,0 -10,4.478 -10,10 v 20.303 c 0,1.776 -1.44,3.215 -3.215,3.215 -1.776,0 -3.216,1.44 -3.216,3.216 v 37.921 c 0,1.402 -1.136,2.538 -2.538,2.538 -1.402,0 -2.538,-1.136 -2.538,-2.538 v -16.084 c 0,-1.869 -1.516,-3.384 -3.385,-3.384 -1.869,0 -3.384,-1.516 -3.384,-3.385 V 455.078 c 0,-5.522 -4.478,-10 -10,-10 h -47.876 c -42.307,0 -76.49,29.794 -76.49,72.115 v 23.856 c 0,5.523 -4.478,10 -10,10 h -3.877 c -12.184,0 -21.999,20.991 -21.999,32.503 v 39.769 c 0,5.523 -4.478,10 -10.003,10 h -15.87 c -5.53,0 -10,-4.477 -10,-10 v -37.556 c 0,-5.523 -4.48,-10 -10,-10 h -4.03 c -5.53,0 -10,4.477 -10,10 v 87 c 0,2.898 -2.35,5.246 -5.25,5.246 -2.9,0 -5.25,-2.348 -5.25,-5.246 v -48.756 c 0,-1.589 -1.28,-2.877 -2.87,-2.877 -1.59,0 -2.88,-1.288 -2.88,-2.877 v -32.49 c 0,-5.523 -4.48,-10 -10,-10 h -1.32 c -5.52,0 -10,-4.478 -10,-10 V 530.24 c 0,-5.523 -4.48,-10 -10,-10 H -1126 c -5.52,0 -10,4.477 -10,10 V 732 c 0,5.523 4.48,10 10,10 h 2470 c 5.52,0 10,-4.477 10,-10 V 354.525 c 0,-5.523 -4.48,-10 -10,-10 z M 945.149,536.322 c 0,0.654 -0.531,1.185 -1.185,1.185 h -2.2 c -0.187,0 -0.338,-0.152 -0.338,-0.339 v -0.846 c 0,-0.655 0.53,-1.185 1.185,-1.185 h 1.353 c 0.654,0 1.185,0.53 1.185,1.185 z m 0,-5.756 c 0,0.655 -0.531,1.185 -1.185,1.185 h -1.353 c -0.655,0 -1.185,-0.53 -1.185,-1.185 0,-0.654 0.53,-1.185 1.185,-1.185 h 1.353 c 0.654,0 1.185,0.531 1.185,1.185 z m 0,-6.094 c 0,0.654 -0.531,1.185 -1.185,1.185 h -1.353 c -0.655,0 -1.185,-0.531 -1.185,-1.185 0,-0.654 0.53,-1.185 1.185,-1.185 h 1.353 c 0.654,0 1.185,0.531 1.185,1.185 z m 0,-6.094 c 0,0.654 -0.531,1.185 -1.185,1.185 h -1.353 c -0.655,0 -1.185,-0.531 -1.185,-1.185 0,-0.655 0.53,-1.185 1.185,-1.185 h 1.353 c 0.654,0 1.185,0.53 1.185,1.185 z m 0,-6.094 c 0,0.654 -0.531,1.185 -1.185,1.185 h -1.353 c -0.655,0 -1.185,-0.531 -1.185,-1.185 0,-0.655 0.53,-1.185 1.185,-1.185 h 1.353 c 0.654,0 1.185,0.53 1.185,1.185 z m 0,-6.095 c 0,0.655 -0.531,1.185 -1.185,1.185 h -1.353 c -0.655,0 -1.185,-0.53 -1.185,-1.185 0,-0.654 0.53,-1.184 1.185,-1.184 h 1.353 c 0.654,0 1.185,0.53 1.185,1.184 z m 0,-5.755 c 0,0.654 -0.531,1.185 -1.185,1.185 h -1.353 c -0.655,0 -1.185,-0.531 -1.185,-1.185 0,-0.655 0.53,-1.185 1.185,-1.185 h 1.353 c 0.654,0 1.185,0.53 1.185,1.185 z"
       fill="url(#paint2_linear)"
       id="path7"
       style="fill:url(#paint2_linear)" />
    <path
       d="m 1098.89,495.501 c -58.78,0 -106.326,100.894 -106.326,225.245 h 212.766 c 0,-124.477 -47.67,-225.245 -106.44,-225.245 z"
       fill="url(#paint3_linear)"
       id="path9"
       style="fill:url(#paint3_linear)" />
    <path
       d="m 1098.89,495.501 c -58.78,0 -106.326,100.894 -106.326,225.245 h 212.766 c 0,-124.477 -47.67,-225.245 -106.44,-225.245 z"
       fill="url(#paint4_linear)"
       id="path11"
       style="fill:url(#paint4_linear)" />
    <mask
       id="mask1"
       mask-type="alpha"
       maskUnits="userSpaceOnUse"
       x="992"
       y="495"
       width="214"
       height="226">
      <path
         d="m 1098.89,495.501 c -58.78,0 -106.326,100.894 -106.326,225.245 h 212.766 c 0,-124.477 -47.67,-225.245 -106.44,-225.245 z"
         fill="url(#paint5_linear)"
         id="path13" />
    </mask>
    <g
       mask="url(#mask1)"
       id="g18">
      <path
         opacity="0.2"
         d="m 1009.25,515.899 c 33.69,-15.346 101.72,-40.448 104.35,-18.087 3.29,27.952 -191.451,147.981 -124.895,122.495 66.555,-25.485 124.075,-95.365 138.865,-70.702 14.79,24.664 -129.827,126.606 -81.35,121.674 48.48,-4.933 108.46,-118.385 127.36,-100.298 18.9,18.086 -124.07,143.87 -92.02,154.557 32.04,10.688 119.96,-167.711 155.29,-171.822"
         stroke="url(#paint6_linear)"
         stroke-width="2"
         id="path16"
         style="stroke:url(#paint6_linear)" />
    </g>
    <path
       opacity="0.3"
       d="m 1191.54,720.746 h 13.79 c 0,-124.477 -47.67,-225.245 -106.44,-225.245 -2.32,0 -4.62,0.157 -6.9,0.465 55.56,7.518 99.55,105.21 99.55,224.78 z"
       fill="#c9d983"
       id="path20" />
    <path
       d="m 1216.82,556.573 c -43,0 -77.81,73.833 -77.81,164.83 h 155.63 c -0.12,-90.997 -34.93,-164.83 -77.82,-164.83 z"
       fill="url(#paint7_linear)"
       id="path22"
       style="fill:url(#paint7_linear)" />
    <mask
       id="mask2"
       mask-type="alpha"
       maskUnits="userSpaceOnUse"
       x="1139"
       y="556"
       width="156"
       height="166">
      <path
         d="m 1216.82,556.573 c -43,0 -77.81,73.833 -77.81,164.83 h 155.63 c -0.12,-90.997 -34.93,-164.83 -77.82,-164.83 z"
         fill="url(#paint8_linear)"
         id="path24" />
    </mask>
    <g
       mask="url(#mask2)"
       id="g29">
      <path
         opacity="0.2"
         d="m 1192.37,519.142 c -30.53,49.731 -79.45,138.99 -30.86,98.179 60.74,-51.015 118.59,-34.652 94.49,0 -24.11,34.651 -94.49,16.363 -87.74,52.939 5.4,29.261 83.88,-14.117 122.44,-39.464"
         stroke="url(#paint9_linear)"
         stroke-width="2"
         id="path27"
         style="stroke:url(#paint9_linear)" />
    </g>
    <path
       opacity="0.3"
       fill-rule="evenodd"
       clip-rule="evenodd"
       d="m 1278.23,721.403 h 16.41 c -0.12,-90.997 -34.93,-164.83 -77.82,-164.83 -2.77,0 -5.51,0.308 -8.22,0.908 39.04,8.697 69.51,78.8 69.63,163.922 z"
       fill="#c9d983"
       id="path31" />
    <path
       d="m 910.478,476.457 c -68.167,0 -123.458,108.79 -123.458,242.976 h 246.92 C 1033.81,585.247 978.645,476.457 910.478,476.457 Z"
       fill="url(#paint10_linear)"
       id="path33"
       style="fill:url(#paint10_linear)" />
    <mask
       id="mask3"
       mask-type="alpha"
       maskUnits="userSpaceOnUse"
       x="787"
       y="476"
       width="247"
       height="244">
      <path
         d="m 910.478,476.457 c -68.167,0 -123.458,108.79 -123.458,242.976 h 246.92 C 1033.81,585.247 978.645,476.457 910.478,476.457 Z"
         fill="url(#paint11_linear)"
         id="path35" />
    </mask>
    <g
       mask="url(#mask3)"
       id="g40">
      <path
         opacity="0.2"
         d="m 797.526,525.485 c 13.012,-15.356 42.242,-42.717 55.068,-29.316 16.033,16.752 -18.123,74.684 4.183,81.664 22.306,6.98 53.673,-102.603 80.859,-92.133 27.185,10.469 -117.107,180.079 -66.918,186.361 50.188,6.282 73.191,-145.18 94.8,-134.711 21.609,10.47 -48.794,92.134 -24.397,115.865 24.397,23.732 36.945,-87.945 56.462,-75.382 19.517,12.564 5.577,75.382 -13.244,117.959"
         stroke="url(#paint12_linear)"
         stroke-width="2"
         id="path38"
         style="stroke:url(#paint12_linear)" />
    </g>
    <path
       opacity="0.2"
       d="m 1006.35,719.433 h 27.59 c -0.13,-134.186 -55.295,-242.976 -123.462,-242.976 -4.662,0 -9.264,0.509 -13.791,1.5 61.665,13.499 109.553,116.466 109.663,241.476 z"
       fill="#c9d983"
       id="path42" />
    <path
       d="m 1086.41,570.526 h -2.29 V 718.23 h 2.29 z"
       fill="#0c5e59"
       id="path44" />
    <path
       d="m 1101.91,561.174 c -4.9,0 -9.46,3.535 -12.65,6.729 2.16,-3.08 5.13,-6.843 7.41,-7.528 3.99,-1.254 7.18,-0.684 7.18,-0.684 0,0 -3.65,-5.133 -9.12,-2.737 -2.4,1.026 -4.45,4.448 -5.93,7.755 0.8,-3.079 1.48,-6.729 0.91,-10.037 -1.37,-8.44 -10.71,-9.124 -10.71,-9.124 0,0 5.24,7.3 6.15,15.854 0.12,1.14 0.23,2.281 0.34,3.307 -0.79,-4.904 -2.73,-10.835 -7.52,-14.029 -11.86,-7.87 -19.27,5.931 -19.27,5.931 0,0 6.73,-4.22 15.62,0.229 7.07,3.535 10.03,11.063 10.95,14.143 -1.14,-2.282 -6.05,-10.95 -13.8,-12.205 -11.74,-1.938 -14.71,12.889 -14.71,12.889 0,0 6.73,-5.361 15.05,-5.019 6.5,0.343 11.06,2.966 13.34,5.019 -1.25,-0.342 -3.87,-0.913 -7.07,-1.027 -10.37,-0.114 -12.54,13.801 -12.54,13.801 l 19.73,-12.09 c -0.92,1.597 -2.63,5.019 -3.54,7.3 -1.37,3.194 -0.45,10.379 -0.45,10.379 0,0 3.19,-5.475 4.1,-9.01 0.91,-3.422 0.68,-6.958 0.57,-8.669 l 13.34,14.486 c 0,0 3.3,-8.783 -6.84,-13.003 -1.37,-0.57 -2.51,-1.027 -3.42,-1.369 2.39,0.342 5.36,1.369 8.43,3.308 5.82,3.764 9.58,9.01 9.58,9.01 0,0 3.65,-10.607 -5.24,-14.941 -2.97,-1.369 -6.27,-1.255 -9.12,-0.57 2.16,-1.255 5.01,-2.167 8.32,-1.711 8.09,1.026 10.37,6.729 10.37,6.729 0,0 2.28,-13.116 -9.46,-13.116 z"
       fill="url(#paint13_linear)"
       id="path46"
       style="fill:url(#paint13_linear)" />
    <path
       d="m 999.418,479.744 h -3.648 v 241.231 h 3.648 z"
       fill="#0c5e59"
       id="path48" />
    <path
       d="m 1022.99,458.951 c -8.9,0 -17.3,6.381 -23.149,12.252 3.939,-5.615 9.419,-12.38 13.609,-13.784 7.13,-2.297 13.11,-1.149 13.11,-1.149 0,0 -6.75,-9.444 -16.67,-4.977 -4.45,1.914 -8.14,8.168 -10.812,14.167 1.522,-5.616 2.542,-12.253 1.652,-18.379 -2.415,-15.316 -19.59,-16.593 -19.59,-16.593 0,0 9.542,13.274 11.323,28.973 0.254,2.042 0.381,4.084 0.509,5.999 -1.527,-9.062 -5.089,-19.911 -13.74,-25.654 -21.499,-14.295 -34.984,10.976 -34.984,10.976 0,0 12.34,-7.658 28.496,0.511 12.722,6.381 18.192,20.293 19.973,25.781 -2.163,-4.211 -10.941,-19.91 -25.189,-22.335 -21.372,-3.574 -26.842,23.612 -26.842,23.612 0,0 12.212,-9.828 27.351,-9.19 11.704,0.511 20.227,5.361 24.426,9.19 -2.163,-0.638 -7.124,-1.787 -12.849,-1.787 -18.955,-0.255 -22.899,25.144 -22.899,25.144 l 36.002,-22.081 c -1.527,2.936 -4.707,9.062 -6.488,13.402 -2.417,5.871 -0.89,18.889 -0.89,18.889 0,0 5.851,-9.955 7.505,-16.464 1.654,-6.254 1.272,-12.764 1.018,-15.827 l 24.428,26.42 c 0,0 5.98,-16.082 -12.34,-23.867 -2.42,-1.021 -4.58,-1.915 -6.236,-2.553 4.456,0.638 9.796,2.425 15.266,5.999 10.69,6.892 17.43,16.337 17.43,16.337 0,0 6.61,-19.528 -9.67,-27.186 -5.34,-2.553 -11.45,-2.17 -16.67,-1.021 3.95,-2.297 9.04,-3.957 15.27,-3.191 14.76,1.787 18.83,12.381 18.83,12.381 0,0 4.2,-24.123 -17.18,-23.995 z"
       fill="url(#paint14_linear)"
       id="path50"
       style="fill:url(#paint14_linear)" />
    <g
       clip-path="url(#clip0)"
       id="g56">
      <path
         d="m 1315,672.179 h -126.08 v 53.666 H 1315 Z"
         fill="#f9f8ef"
         id="path52" />
      <path
         fill-rule="evenodd"
         clip-rule="evenodd"
         d="m 1252.66,658.19 v 0.123 c 1,-2.798 3,-7.252 6.37,-13.897 6.69,-12.718 14.15,-22.49 14.15,-22.49 0,0 -3.27,10.857 -9.95,23.576 -5.91,11.385 -9.15,15.977 -10.57,16.672 v 0.649 c 1.71,-2.26 5.48,-6.137 12.12,-12.203 11.04,-9.927 21.93,-17.061 21.93,-17.061 0,0 -7,9.151 -18.04,19.233 -6.47,5.826 -10.76,9.321 -13.43,11.114 2.72,-1.691 6.96,-4.009 13.12,-7.082 13.68,-6.824 26.12,-11.012 26.12,-11.012 0,0 -9.64,6.98 -23.32,13.804 -10.42,5.316 -16.06,7.573 -18.5,8.004 v 0.466 c 2.19,-1.218 7.8,-3.174 18.5,-6.143 15.08,-4.188 28.29,-6.049 28.29,-6.049 0,0 -11.5,5.118 -26.58,9.306 -4.92,1.365 -8.84,2.367 -11.92,3.067 3.12,-0.519 7.14,-1.08 12.23,-1.671 16.01,-2.017 29.38,-1.862 29.38,-1.862 0,0 -12.59,3.413 -28.6,5.274 -12.9,1.624 -19.24,1.839 -21.3,1.376 v 0.33 h -1.56 v -0.222 c -0.28,0.083 -0.68,0.153 -1.24,0.222 h -4.51 c -3.42,-0.155 -8.55,-0.465 -15.7,-1.396 -16.02,-2.016 -28.61,-5.273 -28.61,-5.273 0,0 13.37,-0.155 29.39,1.861 4.81,0.559 8.66,1.076 11.7,1.551 -2.99,-0.692 -6.75,-1.658 -11.39,-2.947 -15.24,-4.188 -26.59,-9.306 -26.59,-9.306 0,0 13.22,1.861 28.3,6.049 10.95,3.043 16.58,5.021 18.65,6.232 v -0.547 c -2.35,-0.395 -8.01,-2.7 -18.65,-8.012 -13.68,-6.824 -23.32,-13.804 -23.32,-13.804 0,0 12.43,4.188 26.12,11.012 5.78,2.884 9.86,5.102 12.6,6.762 -2.73,-1.875 -6.9,-5.297 -12.92,-10.794 -11.03,-10.082 -18.03,-19.233 -18.03,-19.233 0,0 10.88,6.98 21.92,17.061 4.75,4.336 8.03,7.554 10.14,9.862 -1.81,-2.353 -4.63,-7.007 -8.74,-14.825 -6.68,-12.718 -9.95,-23.576 -9.95,-23.576 0,0 7.62,9.772 14.15,22.49 3.76,7.335 5.82,12.039 6.68,14.767 v -1.457 c -0.83,-1.926 -1.4,-7.488 -1.4,-18.583 0,-14.27 2.18,-25.902 2.18,-25.902 0,0 2.18,11.632 2.18,25.902 0,11.092 -0.57,16.655 -1.4,18.582 z m -1.56,4.542 c -0.23,-0.019 -0.53,-0.194 -0.91,-0.546 0.36,0.428 0.66,0.812 0.91,1.156 z m 0,2.943 c -0.38,-0.1 -0.87,-0.315 -1.48,-0.66 0.59,0.396 1.08,0.75 1.48,1.062 z m 1.56,-0.029 c 0.42,-0.325 0.95,-0.693 1.58,-1.105 -0.65,0.387 -1.17,0.641 -1.58,0.774 z m -1.56,4.236 c -0.5,0.034 -1.2,-10e-4 -2.14,-0.115 0.99,0.254 1.69,0.492 2.14,0.711 z m 1.56,0.349 c 0.58,-0.27 1.51,-0.568 2.84,-0.891 -1.27,0.19 -2.2,0.264 -2.84,0.24 z m -9.18,1.483 h -29.07 c 4.51,-0.31 9.95,-0.465 15.7,-0.465 5.6,0 10.11,0.155 13.37,0.465 z m 16.64,0 h 29.07 c -4.51,-0.31 -9.95,-0.62 -15.7,-0.465 -5.75,0.155 -10.11,0.31 -13.37,0.465 z"
         fill="url(#paint15_linear)"
         id="path54"
         style="fill:url(#paint15_linear)" />
    </g>
    <path
       d="m 921.06,692.595 c -2.28,-10.493 -6.042,-20.416 -11.059,-29.541 -0.684,-1.254 -1.482,-2.623 -2.28,-3.878 -5.814,-9.694 -12.997,-18.363 -21.319,-25.891 -1.026,-1.026 -2.166,-1.939 -3.306,-2.851 -8.893,-7.414 -19.04,-13.459 -29.984,-17.793 -1.368,-0.57 -2.736,-1.026 -4.105,-1.483 -10.944,-3.878 -22.801,-6.045 -35,-6.273 -0.684,0 -1.482,0 -2.166,0 -0.684,0 -1.482,0 -2.166,0 -12.313,0.228 -24.056,2.395 -35,6.273 -1.368,0.457 -2.736,1.027 -4.105,1.483 -10.944,4.334 -21.091,10.379 -29.983,17.793 -1.14,0.912 -2.281,1.939 -3.307,2.851 -8.322,7.528 -15.619,16.197 -21.319,25.891 -0.798,1.255 -1.482,2.624 -2.28,3.878 -5.016,9.125 -8.779,19.048 -11.059,29.541 -0.342,1.483 -0.57,2.966 -0.912,4.448 -1.14,6.388 -1.71,12.889 -1.71,19.504 h 223.568 c 0,-6.615 -0.57,-13.231 -1.71,-19.504 -0.228,-1.482 -0.456,-2.965 -0.798,-4.448 z"
       fill="url(#paint16_linear)"
       id="path58"
       style="fill:url(#paint16_linear)" />
    <path
       opacity="0.3"
       d="m 809.676,604.771 v 111.776 h 4.332 V 604.771 c -0.684,0 -1.482,0 -2.166,0 -0.798,0 -1.482,0 -2.166,0 z"
       fill="url(#paint17_linear)"
       id="path60"
       style="fill:url(#paint17_linear)" />
    <path
       opacity="0.3"
       d="m 770.57,612.641 27.818,104.02 h 4.446 L 774.561,611.158 c -1.255,0.457 -2.623,0.913 -3.991,1.483 z"
       fill="url(#paint18_linear)"
       id="path62"
       style="fill:url(#paint18_linear)" />
    <path
       opacity="0.3"
       d="m 737.28,633.285 48.111,83.262 h 4.903 l -49.708,-86.113 c -1.14,0.912 -2.28,1.939 -3.306,2.851 z"
       fill="url(#paint19_linear)"
       id="path64"
       style="fill:url(#paint19_linear)" />
    <path
       opacity="0.3"
       d="m 713.681,663.054 53.583,53.607 h 6.043 l -57.46,-57.485 c -0.684,1.255 -1.482,2.624 -2.166,3.878 z"
       fill="url(#paint20_linear)"
       id="path66"
       style="fill:url(#paint20_linear)" />
    <path
       opacity="0.3"
       d="m 701.71,697.043 33.86,19.504 h 8.665 l -41.613,-24.066 c -0.342,1.597 -0.57,3.08 -0.912,4.562 z"
       fill="url(#paint21_linear)"
       id="path68"
       style="fill:url(#paint21_linear)" />
    <path
       opacity="0.3"
       d="m 820.734,716.661 h 4.447 l 27.817,-104.02 c -1.368,-0.57 -2.736,-1.026 -4.104,-1.483 z"
       fill="url(#paint22_linear)"
       id="path70"
       style="fill:url(#paint22_linear)" />
    <path
       opacity="0.3"
       d="m 833.274,716.661 h 5.017 l 48.111,-83.262 c -1.026,-1.026 -2.166,-1.938 -3.306,-2.851 z"
       fill="url(#paint23_linear)"
       id="path72"
       style="fill:url(#paint23_linear)" />
    <g
       opacity="0.3"
       id="g76">
      <path
         d="m 850.262,716.661 h 6.042 l 53.584,-53.607 c -0.684,-1.254 -1.482,-2.623 -2.281,-3.878 z"
         fill="url(#paint24_linear)"
         id="path74"
         style="fill:url(#paint24_linear)" />
    </g>
    <path
       d="m 879.447,716.661 h 8.665 l 33.86,-19.504 c -0.228,-1.482 -0.57,-2.965 -0.912,-4.448 z"
       fill="#084f15"
       id="path78" />
    <path
       d="m 1004.74,701.378 c -1.48,-6.616 -3.87,-13.003 -7.067,-18.82 -0.456,-0.798 -0.912,-1.597 -1.368,-2.509 -3.648,-6.159 -8.208,-11.634 -13.567,-16.424 -0.684,-0.571 -1.368,-1.255 -2.166,-1.825 -5.7,-4.677 -12.084,-8.555 -19.039,-11.292 -0.798,-0.342 -1.71,-0.684 -2.622,-0.912 -6.955,-2.51 -14.479,-3.878 -22.231,-3.992 -0.457,0 -0.913,0 -1.369,0 -0.456,0 -0.912,0 -1.368,0 -7.752,0.114 -15.277,1.596 -22.231,3.992 -0.912,0.342 -1.71,0.57 -2.622,0.912 -6.955,2.737 -13.339,6.615 -19.039,11.292 -0.684,0.57 -1.369,1.254 -2.167,1.825 -5.358,4.79 -9.918,10.265 -13.566,16.424 -0.456,0.798 -0.913,1.597 -1.369,2.509 -3.192,5.817 -5.586,12.09 -7.068,18.82 -0.228,0.912 -0.342,1.938 -0.57,2.851 -0.684,3.992 -1.14,8.212 -1.14,12.432 h 142.049 c 0,-4.22 -0.34,-8.44 -1.14,-12.432 0.12,-1.027 -0.11,-1.939 -0.34,-2.851 z"
       fill="url(#paint25_linear)"
       id="path80"
       style="fill:url(#paint25_linear)" />
    <path
       opacity="0.3"
       d="m 933.942,645.604 v 71.057 h 2.737 v -71.057 c -0.456,0 -0.912,0 -1.369,0 -0.456,0 -0.912,0 -1.368,0 z"
       fill="url(#paint26_linear)"
       id="path82"
       style="fill:url(#paint26_linear)" />
    <path
       opacity="0.3"
       d="m 909.203,650.508 17.671,66.039 h 2.85 l -17.899,-67.065 c -0.912,0.456 -1.824,0.684 -2.622,1.026 z"
       fill="url(#paint27_linear)"
       id="path84"
       style="fill:url(#paint27_linear)" />
    <path
       opacity="0.3"
       d="m 887.998,663.739 30.554,52.922 h 3.192 l -31.58,-54.747 c -0.798,0.57 -1.482,1.14 -2.166,1.825 z"
       fill="url(#paint28_linear)"
       id="path86"
       style="fill:url(#paint28_linear)" />
    <path
       opacity="0.3"
       d="m 872.949,682.558 34.088,33.989 h 3.877 l -36.483,-36.498 c -0.456,0.912 -1.026,1.711 -1.482,2.509 z"
       fill="url(#paint29_linear)"
       id="path88"
       style="fill:url(#paint29_linear)" />
    <path
       opacity="0.3"
       d="m 865.425,704.229 21.547,12.432 h 5.472 l -26.449,-15.284 c -0.228,0.913 -0.456,1.825 -0.57,2.852 z"
       fill="url(#paint30_linear)"
       id="path90"
       style="fill:url(#paint30_linear)" />
    <path
       opacity="0.3"
       d="m 941.011,716.661 h 2.85 l 17.671,-66.039 c -0.798,-0.342 -1.71,-0.684 -2.622,-0.912 z"
       fill="url(#paint31_linear)"
       id="path92"
       style="fill:url(#paint31_linear)" />
    <path
       opacity="0.3"
       d="m 948.992,716.661 h 3.192 l 30.554,-52.922 c -0.684,-0.571 -1.368,-1.255 -2.166,-1.825 z"
       fill="url(#paint32_linear)"
       id="path94"
       style="fill:url(#paint32_linear)" />
    <path
       opacity="0.3"
       d="m 959.822,716.661 h 3.876 l 34.089,-33.989 c -0.456,-0.798 -0.912,-1.597 -1.368,-2.509 z"
       fill="url(#paint33_linear)"
       id="path96"
       style="fill:url(#paint33_linear)" />
    <path
       opacity="0.3"
       d="m 978.292,716.661 h 5.472 l 21.546,-12.432 c -0.11,-0.913 -0.34,-1.939 -0.57,-2.852 z"
       fill="url(#paint34_linear)"
       id="path98"
       style="fill:url(#paint34_linear)" />
    <path
       d="M 1290,709 H -6 v 95.58 h 1296 z"
       fill="url(#paint35_linear)"
       id="path100"
       style="fill:url(#paint35_linear)" />
    <mask
       id="mask4"
       mask-type="alpha"
       maskUnits="userSpaceOnUse"
       x="-6"
       y="709"
       width="1296"
       height="96">
      <path
         d="M 1290,709 H -6 v 95.58 h 1296 z"
         fill="url(#paint36_linear)"
         id="path102" />
    </mask>
    <g
       mask="url(#mask4)"
       id="g109">
      <path
         opacity="0.7"
         fill-rule="evenodd"
         clip-rule="evenodd"
         d="m 544.791,747.025 c -8.604,9.061 -17.383,15.24 -26.766,14.814 -2.327,-0.106 -4.196,-0.585 -5.595,-1.473 -1.429,-0.908 -2.3,-2.201 -2.676,-3.767 -0.368,-1.533 -0.253,-3.286 0.184,-5.162 0.438,-1.884 1.216,-3.955 2.239,-6.155 3.746,-8.058 11.001,-18.29 18.026,-28.197 v -0.001 h 10e-4 c 0.613,-0.866 1.225,-1.728 1.832,-2.587 3.798,-5.367 7.439,-10.584 10.354,-15.282 2.928,-4.719 5.068,-8.827 5.925,-11.992 0.429,-1.583 0.508,-2.828 0.285,-3.757 -0.21,-0.874 -0.696,-1.516 -1.58,-1.95 -0.934,-0.459 -2.364,-0.706 -4.456,-0.587 -2.08,0.119 -4.727,0.595 -8.031,1.496 -6.507,1.774 -13.756,5.867 -21.592,11.708 -7.827,5.834 -16.181,13.367 -24.898,21.958 -12.288,12.11 -25.246,26.269 -38.425,40.67 v 0 l -10e-4,10e-4 c -5.53,6.043 -11.1,12.129 -16.675,18.124 -18.831,20.248 -37.721,39.45 -55.273,52.27 -17.481,12.769 -33.987,19.47 -47.885,13.994 -6.871,-2.706 -10.331,-6.595 -10.743,-11.503 -0.399,-4.762 2.125,-10.131 6.254,-15.737 8.288,-11.256 23.687,-24.3 38.638,-36.827 0.328,-0.274 0.655,-0.549 0.983,-0.823 l 0.691,-0.579 0.03,-0.025 c 6.911,-5.788 13.679,-11.456 19.593,-16.798 6.408,-5.789 11.762,-11.15 15.191,-15.822 1.715,-2.336 2.916,-4.456 3.539,-6.333 0.621,-1.872 0.647,-3.43 0.125,-4.724 -0.521,-1.29 -1.654,-2.482 -3.686,-3.488 -2.04,-1.01 -4.925,-1.8 -8.816,-2.299 -12.373,-1.586 -28.247,2.146 -45.927,9.4 -17.65,7.243 -36.975,17.942 -56.199,30.142 -38.447,24.4 -76.394,54.741 -99.585,75.235 l -1.324,-1.498 c 23.249,-20.546 61.28,-50.955 99.837,-75.425 19.278,-12.235 38.712,-23.001 56.512,-30.304 17.771,-7.292 34.041,-11.188 46.94,-9.534 4.006,0.514 7.134,1.344 9.45,2.491 2.326,1.152 3.895,2.656 4.652,4.53 0.755,1.871 0.636,3.944 -0.081,6.104 -0.715,2.153 -2.046,4.464 -3.824,6.886 -3.557,4.845 -9.037,10.318 -15.463,16.123 -5.943,5.368 -12.738,11.059 -19.641,16.84 l -0.002,0.002 v 0 l -0.023,0.019 c -0.562,0.47 -1.125,0.942 -1.688,1.414 -15.019,12.583 -30.198,25.459 -38.312,36.478 -4.073,5.531 -6.206,10.388 -5.871,14.385 0.323,3.85 2.988,7.251 9.483,9.81 12.831,5.054 28.523,-1.003 45.973,-13.749 17.379,-12.694 36.154,-31.765 54.988,-52.017 5.548,-5.966 11.102,-12.035 16.624,-18.069 v 0 c 13.195,-14.419 26.21,-28.64 38.537,-40.788 8.748,-8.622 17.176,-16.226 25.106,-22.137 7.921,-5.904 15.404,-10.164 22.262,-12.035 3.379,-0.921 6.174,-1.433 8.442,-1.562 2.256,-0.129 4.08,0.114 5.453,0.788 1.423,0.699 2.295,1.831 2.643,3.278 0.335,1.393 0.17,3.013 -0.299,4.747 -0.94,3.467 -3.218,7.787 -6.156,12.523 -2.951,4.756 -6.625,10.019 -10.421,15.384 -0.556,0.785 -1.115,1.573 -1.674,2.362 l -0.104,0.147 -0.022,0.032 c -7.066,9.966 -14.214,20.049 -17.879,27.931 -0.989,2.127 -1.708,4.062 -2.104,5.765 -0.398,1.71 -0.456,3.124 -0.187,4.243 0.26,1.085 0.833,1.928 1.803,2.544 1,0.635 2.485,1.067 4.613,1.164 8.437,0.384 16.668,-5.182 25.226,-14.194 6.943,-7.311 13.936,-16.707 21.283,-26.58 v 0 h 10e-4 l 0.004,-0.007 0.017,-0.022 c 1.671,-2.246 3.361,-4.516 5.072,-6.792 9.214,-12.251 19.042,-24.633 29.943,-33.951 10.906,-9.323 22.976,-15.655 36.669,-15.655 v 2 c -13.037,0 -24.66,6.02 -35.37,15.175 -10.716,9.161 -20.43,21.383 -29.643,33.634 -1.7,2.26 -3.384,4.523 -5.054,6.767 l -0.002,0.002 v 0.001 c -7.351,9.878 -14.436,19.398 -21.47,26.806 z m 385.327,-53.304 c -1.994,-3.126 -5.614,-4.977 -11.877,-4.782 -12.457,0.39 -24.354,10.452 -36.015,25.755 -11.615,15.244 -22.767,35.373 -33.813,55.338 l -0.153,0.275 -10e-4,0.002 c -10.971,19.829 -21.845,39.483 -32.913,53.791 -5.561,7.19 -11.212,13.087 -16.998,16.984 -5.798,3.905 -11.788,5.84 -17.975,4.987 -6.102,-0.842 -10.154,-3.403 -12.485,-7.355 -2.298,-3.898 -2.823,-8.983 -2.27,-14.691 1.105,-11.406 6.584,-25.922 12.139,-40.061 0.447,-1.139 0.895,-2.275 1.341,-3.407 5.131,-13.019 10.048,-25.493 11.588,-34.964 0.839,-5.161 0.632,-9.202 -0.883,-11.92 -1.453,-2.606 -4.257,-4.233 -9.293,-4.233 -4.953,0 -9.771,2.188 -14.56,6.173 -4.794,3.988 -9.491,9.722 -14.176,16.673 -7.851,11.651 -15.564,26.559 -23.584,42.062 l -0.001,0.001 v 10e-4 c -1.557,3.008 -3.125,6.039 -4.707,9.073 -9.717,18.623 -19.986,37.34 -31.501,51.403 -11.501,14.046 -24.413,23.654 -39.451,23.654 -7.429,0 -12.29,-1.934 -14.905,-5.659 -2.584,-3.68 -2.746,-8.802 -1.566,-14.625 1.187,-5.857 3.78,-12.659 7.015,-19.909 2.74,-6.141 5.962,-12.651 9.217,-19.226 l 10e-4,-0.001 v 0 l 0.033,-0.066 c 0.579,-1.171 1.159,-2.344 1.738,-3.517 7.719,-15.64 15.117,-31.27 16.611,-43.369 0.744,-6.027 -0.003,-11.001 -2.732,-14.649 -2.719,-3.636 -7.568,-6.17 -15.511,-6.964 -25.577,-2.558 -51.526,8.633 -73.653,23.806 -22.109,15.16 -40.26,34.2 -50.196,47.089 l -1.584,-1.221 c 10.044,-13.03 28.343,-32.222 50.649,-47.518 22.288,-15.283 48.719,-26.772 74.983,-24.146 8.256,0.826 13.735,3.506 16.914,7.756 3.168,4.236 3.889,9.818 3.115,16.092 -1.544,12.505 -9.131,28.465 -16.802,44.01 -0.592,1.2 -1.185,2.397 -1.777,3.592 v 10e-4 c -3.256,6.577 -6.457,13.045 -9.18,19.146 -3.22,7.217 -5.739,13.856 -6.881,19.491 -1.149,5.669 -0.856,10.09 1.243,13.079 2.068,2.946 6.118,4.808 13.268,4.808 14.122,0 26.522,-9.022 37.904,-22.921 11.367,-13.882 21.551,-32.425 31.274,-51.062 1.574,-3.015 3.136,-6.034 4.688,-9.035 8.019,-15.501 15.797,-30.537 23.72,-42.293 4.731,-7.021 9.552,-12.931 14.554,-17.094 5.007,-4.165 10.263,-6.635 15.84,-6.635 5.494,0 9.12,1.816 11.04,5.259 1.857,3.332 1.967,7.947 1.11,13.215 -1.577,9.697 -6.576,22.376 -11.675,35.311 -0.456,1.156 -0.912,2.313 -1.367,3.471 -5.583,14.211 -10.937,28.45 -12.009,39.522 -0.536,5.53 0.016,10.114 2.002,13.482 1.953,3.312 5.393,5.611 11.036,6.389 5.559,0.767 11.059,-0.943 16.583,-4.664 5.535,-3.727 11.034,-9.437 16.534,-16.548 10.974,-14.188 21.788,-33.734 32.805,-53.644 l 0.094,-0.17 c 11.026,-19.927 22.25,-40.197 33.973,-55.581 11.677,-15.325 24.08,-26.121 37.543,-26.542 6.697,-0.209 11.126,1.788 13.625,5.705 2.436,3.818 2.872,9.227 2.234,15.47 -0.642,6.277 -2.395,13.604 -4.556,21.411 -1.081,3.909 -2.268,7.951 -3.474,12.054 l -0.055,0.185 -0.003,0.011 -0.002,0.007 c -1.187,4.04 -2.392,8.138 -3.535,12.238 -2.325,8.341 -4.387,16.658 -5.523,24.445 -1.137,7.794 -1.337,14.992 0.018,21.114 1.35,6.097 4.233,11.102 9.27,14.604 5.06,3.518 12.403,5.596 22.812,5.596 v 2 c -10.651,0 -18.444,-2.124 -23.953,-5.953 -5.531,-3.845 -8.646,-9.332 -10.081,-15.815 -1.43,-6.459 -1.199,-13.929 -0.045,-21.835 1.154,-7.913 3.244,-16.327 5.576,-24.693 1.147,-4.117 2.356,-8.229 3.543,-12.268 l 0.059,-0.2 c 1.207,-4.105 2.389,-8.132 3.466,-12.023 2.155,-7.792 3.87,-14.982 4.493,-21.082 0.628,-6.136 0.127,-10.965 -1.93,-14.19 z m 313.052,94.372 c -1.87,-6.234 -5.79,-13.049 -11.01,-20.132 -5.22,-7.092 -11.77,-14.506 -18.95,-21.94 -11.96,-12.388 -25.73,-24.883 -38.06,-36.078 v -10e-4 c -2.46,-2.236 -4.87,-4.42 -7.19,-6.54 -6.99,-6.379 -13.22,-12.183 -18.02,-17.127 -4.85,-4.981 -8.12,-8.974 -9.33,-11.745 -0.61,-1.4 -0.57,-2.202 -0.31,-2.645 0.25,-0.435 0.93,-0.922 2.65,-1.093 3.41,-0.339 9.67,0.691 19.61,3.53 l 0.55,-1.924 c -9.91,-2.831 -16.52,-3.978 -20.36,-3.596 -1.9,0.19 -3.44,0.788 -4.19,2.089 -0.74,1.293 -0.46,2.877 0.22,4.438 1.37,3.152 4.91,7.386 9.72,12.34 4.85,4.991 11.13,10.831 18.11,17.209 2.33,2.123 4.73,4.305 7.19,6.537 l 0.02,0.021 c 12.33,11.197 26.04,23.638 37.95,35.974 7.15,7.4 13.64,14.743 18.78,21.737 5.16,7.003 8.93,13.604 10.7,19.52 0.9,3.006 1.43,5.42 1.63,7.312 0.19,1.912 0.04,3.184 -0.31,3.98 -0.31,0.72 -0.8,1.083 -1.52,1.212 -0.8,0.144 -1.94,-0.001 -3.48,-0.524 -3.05,-1.043 -7.19,-3.419 -12.23,-6.778 -5.03,-3.345 -10.88,-7.609 -17.37,-12.37 -0.8,-0.589 -1.61,-1.186 -2.43,-1.789 -12.43,-9.137 -26.94,-19.803 -42.09,-29.088 -16.13,-9.893 -33.05,-18.267 -49.02,-21.542 -7.9,-1.621 -13.45,-2.304 -17.01,-2.113 -1.76,0.094 -3.18,0.409 -4.15,1.058 -0.51,0.337 -0.9,0.773 -1.15,1.317 -0.24,0.541 -0.29,1.121 -0.22,1.701 0.14,1.121 0.76,2.339 1.64,3.598 0.9,1.281 2.14,2.708 3.66,4.261 3.02,3.107 7.22,6.804 12.13,10.957 2.91,2.46 6.08,5.084 9.41,7.847 7.95,6.59 16.86,13.975 25.57,21.848 12.36,11.172 24.24,23.256 32.27,35.301 2.01,3.011 3.33,5.416 4.06,7.289 0.74,1.913 0.79,3.08 0.54,3.739 -0.2,0.537 -0.69,0.971 -1.89,1.126 -1.23,0.159 -2.99,-0.017 -5.27,-0.546 -4.55,-1.054 -10.84,-3.421 -18.46,-6.675 -7.6,-3.249 -16.45,-7.355 -26.12,-11.862 l -2.42,-1.124 c -18.78,-8.755 -40.39,-18.829 -61.56,-26.924 -22.07,-8.437 -43.77,-14.769 -61.37,-15.178 -7.018,-0.163 -12.271,0.534 -15.965,2.002 -3.729,1.483 -5.948,3.793 -6.665,6.828 -0.699,2.96 0.089,6.388 1.832,10.029 1.752,3.661 4.532,7.67 8.022,11.86 13.946,16.741 39.716,36.974 59.166,50.482 l 1.14,-1.642 c -19.43,-13.492 -45.01,-33.597 -58.769,-50.12 -3.436,-4.126 -6.103,-7.991 -7.755,-11.443 -1.662,-3.472 -2.235,-6.396 -1.689,-8.707 0.528,-2.237 2.162,-4.118 5.457,-5.428 3.331,-1.325 8.273,-2.022 15.186,-1.861 17.23,0.401 38.66,6.624 60.69,15.046 21.11,8.069 42.66,18.116 61.46,26.878 l 2.39,1.115 c 9.67,4.504 18.55,8.624 26.19,11.888 7.62,3.257 14.05,5.687 18.79,6.784 2.35,0.547 4.39,0.786 5.97,0.582 1.61,-0.208 2.96,-0.915 3.52,-2.413 0.51,-1.375 0.23,-3.137 -0.56,-5.162 -0.8,-2.066 -2.21,-4.609 -4.26,-7.673 -8.17,-12.255 -20.19,-24.471 -32.58,-35.675 -8.75,-7.902 -17.71,-15.335 -25.68,-21.934 v -0.002 c -3.32,-2.755 -6.47,-5.365 -9.36,-7.803 -4.91,-4.15 -9.04,-7.793 -11.99,-10.825 -1.48,-1.516 -2.64,-2.857 -3.45,-4.014 -0.83,-1.179 -1.22,-2.068 -1.3,-2.694 -0.03,-0.293 0.01,-0.496 0.07,-0.644 0.07,-0.146 0.19,-0.305 0.43,-0.465 0.52,-0.346 1.5,-0.636 3.15,-0.725 3.28,-0.176 8.61,0.457 16.5,2.076 15.62,3.205 32.31,11.436 48.38,21.287 15.07,9.239 29.51,19.859 41.95,29.002 l 0.01,0.001 c 0.81,0.601 1.62,1.194 2.42,1.781 6.48,4.757 12.37,9.048 17.44,12.423 5.05,3.362 9.37,5.871 12.7,7.006 1.65,0.565 3.18,0.831 4.47,0.6 1.38,-0.246 2.42,-1.044 3.01,-2.38 0.55,-1.262 0.67,-2.941 0.45,-4.986 -0.21,-2.065 -0.77,-4.612 -1.69,-7.681 z"
         fill="url(#paint37_linear)"
         id="path105"
         style="fill:url(#paint37_linear)" />
      <path
         opacity="0.1"
         d="m 382.158,742.448 c -133.23,0 -155.6,44.253 -390.58769,44.253 V 856.42 H 1290 V 707.38 c -285.09,0 -248.39,62.204 -493.968,62.204 -245.572,0 -298.497,-27.136 -413.874,-27.136 z"
         fill="url(#paint38_linear)"
         id="path107"
         style="fill:url(#paint38_linear)" />
    </g>
    <path
       opacity="0.2"
       d="M 469.507,414.869 C 583.589,300.787 583.629,115.784 469.598,1.65287 355.566,-112.478 170.644,-112.519 56.5626,1.56277 -57.5188,115.644 -57.5592,300.647 56.4724,414.778 170.504,528.91 355.426,528.95 469.507,414.869 Z"
       fill="url(#paint39_linear)"
       id="path111"
       style="fill:url(#paint39_linear)" />
    <path
       d="m 73.4381,433.741 h 5.5443 v 366.606 h -5.5443 z"
       fill="#0c5e59"
       id="path113" />
    <path
       d="m 37.6076,402.141 c 13.5334,0 26.2936,9.698 35.187,18.621 -5.9934,-8.535 -14.3068,-18.815 -20.6869,-20.949 -10.8267,-3.491 -19.9135,-1.745 -19.9135,-1.745 0,0 10.2467,-14.354 25.3269,-7.565 6.7667,2.909 12.3734,12.414 16.4334,21.53 -2.32,-8.534 -3.8666,-18.621 -2.5133,-27.931 3.6734,-23.276 29.7738,-25.216 29.7738,-25.216 0,0 -14.5003,20.173 -17.207,44.031 -0.3867,3.103 -0.5801,6.207 -0.7734,9.116 2.32,-13.771 7.7335,-30.259 20.8804,-38.987 32.673,-21.725 53.167,16.681 53.167,16.681 0,0 -18.754,-11.638 -43.307,0.776 -19.3336,9.698 -27.647,30.841 -30.3537,39.181 3.2867,-6.4 16.6267,-30.259 38.2807,-33.944 32.48,-5.431 40.793,35.884 40.793,35.884 0,0 -18.56,-14.935 -41.567,-13.966 -17.787,0.776 -30.74,8.147 -37.12,13.966 3.2867,-0.97 10.8267,-2.715 19.527,-2.715 28.807,-0.388 34.8,38.211 34.8,38.211 L 83.6213,433.564 c 2.32,4.461 7.1534,13.772 9.8601,20.366 3.6734,8.923 1.3533,28.708 1.3533,28.708 0,0 -8.8934,-15.13 -11.4067,-25.022 -2.5134,-9.505 -1.9333,-19.397 -1.5467,-24.052 L 44.761,473.715 c 0,0 -9.0867,-24.44 18.7535,-36.272 3.6734,-1.552 6.96,-2.909 9.4734,-3.879 -6.7668,0.97 -14.8868,3.685 -23.2002,9.116 -16.2402,10.475 -26.4869,24.828 -26.4869,24.828 0,0 -10.0534,-29.677 14.6935,-41.315 8.12,-3.879 17.4001,-3.297 25.3268,-1.552 -5.9934,-3.491 -13.7268,-6.013 -23.2002,-4.849 -22.4268,2.716 -28.6135,18.815 -28.6135,18.815 0,0 -6.38008,-36.66 26.1002,-36.466 z"
       fill="url(#paint40_linear)"
       id="path115"
       style="fill:url(#paint40_linear)" />
    <path
       d="m 231.375,776.59 c -2.387,-10.983 -6.325,-21.369 -11.575,-30.919 -0.716,-1.313 -1.551,-2.746 -2.386,-4.059 -6.086,-10.147 -13.604,-19.22 -22.315,-27.099 -1.074,-1.074 -2.267,-2.03 -3.46,-2.985 -9.308,-7.759 -19.928,-14.086 -31.383,-18.623 -1.432,-0.597 -2.864,-1.074 -4.296,-1.552 -11.455,-4.058 -23.865,-6.327 -36.633,-6.565 -0.716,0 -1.551,0 -2.267,0 -0.716,0 -1.552,0 -2.268,0 -12.887,0.238 -25.1775,2.507 -36.6329,6.565 -1.4319,0.478 -2.8638,1.075 -4.2958,1.552 -11.4553,4.537 -22.0754,10.864 -31.3829,18.623 -1.1933,0.955 -2.3866,2.03 -3.4605,2.985 -8.7109,7.879 -16.3478,16.952 -22.3141,27.099 -0.8353,1.313 -1.5513,2.746 -2.3866,4.059 -5.25036,9.55 -9.18812,19.936 -11.57466,30.919 -0.35798,1.552 -0.59666,3.104 -0.95464,4.656 C 0.596634,787.931 0,794.736 0,801.66 h 234 c 0,-6.924 -0.597,-13.848 -1.79,-20.414 -0.239,-1.552 -0.477,-3.104 -0.835,-4.656 z"
       fill="url(#paint41_linear)"
       id="path117"
       style="fill:url(#paint41_linear)" />
    <path
       fill-rule="evenodd"
       clip-rule="evenodd"
       d="M 114.793,684.668 V 801.66 h 4.534 V 684.668 h -2.267 z m -40.9295,8.237 29.1155,108.874 h 4.654 L 78.04,691.353 c -0.344,0.126 -0.6962,0.251 -1.0545,0.378 h -1e-4 -1e-4 -10e-5 v 0 h -1e-4 -1e-4 -1e-4 c -1.0085,0.359 -2.0649,0.734 -3.1214,1.174 z M 89.376,801.66 39.0201,714.513 l 0.3224,-0.287 h 2e-4 c 0.9878,-0.88 2.0628,-1.837 3.1378,-2.698 L 94.507,801.66 Z m -75.0566,-55.989 56.0837,56.108 h 6.3243 L 16.5866,741.612 c -0.358,0.657 -0.7458,1.343 -1.1336,2.029 -0.3878,0.687 -0.7756,1.373 -1.1336,2.03 z M 37.2301,801.66 1.79004,781.246 c 0.19759,-0.857 0.35884,-1.713 0.52386,-2.59 h 2e-5 c 0.13394,-0.712 0.27038,-1.437 0.43076,-2.185 L 46.299,801.66 Z m 89.1369,0.119 h 4.654 l 29.116,-108.874 c -1.432,-0.597 -2.864,-1.074 -4.296,-1.552 z m 18.377,0 h -5.251 l 52.146,-90.131 c 1.193,0.955 2.387,1.91 3.461,2.984 z m 12.529,0 h 6.324 l 56.084,-56.108 c -0.716,-1.313 -1.551,-2.746 -2.387,-4.059 z m 39.617,0 h -9.069 l 43.554,-25.07 c 0.358,1.552 0.716,3.104 0.955,4.656 z"
       fill="url(#paint42_linear)"
       id="path119"
       style="fill:url(#paint42_linear)" />
    <path
       d="m 65.373,686.941 c -10.9691,0 -15.0826,-9.602 -15.0826,-22.976 0,-13.375 -3.7707,-24.349 -18.5105,-25.034 -19.1959,-0.686 -17.4819,17.832 -17.4819,40.466 0,28.806 -10.28359,10.288 -24.6805,26.406 -12.3403,13.717 3.42789,38.066 8.22687,45.267 H 59.8883 c 2.0567,-3.772 7.1984,-13.031 13.0258,-24.348 13.0258,-24.006 3.428,-39.781 -7.5411,-39.781 z"
       fill="url(#paint43_linear)"
       id="path121"
       style="fill:url(#paint43_linear)" />
    <path
       opacity="0.2"
       fill-rule="evenodd"
       clip-rule="evenodd"
       d="m 35.893,691.4 h -3.0849 v 43.007 l -12.9591,-17.286 -2.4681,1.852 15.4272,20.578 v 11.519 h 3.0849 v -32.494 l 13.0725,-16.22 -2.4016,-1.938 -10.6709,13.241 z"
       fill="#ffffff"
       id="path123" />
    <path
       d="m 78.0558,751.413 h -91.8663 v 51.098 h 91.8663 z"
       fill="#ffffff"
       id="path125" />
    <path
       d="M 1285,0 H 0 v 800 h 1185 c 55.23,0 100,-44.772 100,-100 z"
       fill="url(#paint44_linear)"
       id="path127"
       style="fill:url(#paint44_linear)" />
  </g>
  <path
     opacity="0.56"
     d="m 1383.26,559.321 c 112.86,-112.91 112.86,-295.972 0,-408.881 -112.86,-112.9091 -295.85,-112.909 -408.706,0 -112.86,112.909 -112.86,295.971 0,408.88 112.856,112.91 295.846,112.91 408.706,10e-4 z"
     fill="url(#paint45_linear)"
     id="path131"
     style="fill:url(#paint45_linear)" />
  <path
     opacity="0.2"
     d="m 1035.36,751.553 c 82.54,-82.576 82.54,-216.459 0,-299.035 -82.543,-82.577 -216.367,-82.577 -298.908,0 -82.54,82.576 -82.54,216.459 0,299.035 82.541,82.576 216.365,82.577 298.908,0 z"
     fill="url(#paint46_linear)"
     id="path133"
     style="fill:url(#paint46_linear)" />
  <path
     d="m 625.272,820.483 c -1.57,-7.236 -4.162,-14.079 -7.617,-20.371 -0.471,-0.865 -1.021,-1.809 -1.571,-2.674 -4.005,-6.685 -8.952,-12.663 -14.685,-17.854 -0.707,-0.708 -1.492,-1.337 -2.278,-1.966 -6.125,-5.112 -13.114,-9.281 -20.653,-12.27 -0.943,-0.393 -1.885,-0.708 -2.828,-1.022 -7.539,-2.674 -15.706,-4.169 -24.109,-4.326 -0.471,0 -1.021,0 -1.492,0 -0.471,0 -1.021,0 -1.492,0 -8.481,0.157 -16.57,1.652 -24.109,4.326 -0.942,0.314 -1.885,0.708 -2.827,1.022 -7.539,2.989 -14.528,7.158 -20.654,12.27 -0.785,0.629 -1.57,1.337 -2.277,1.966 -5.733,5.191 -10.759,11.169 -14.686,17.854 -0.549,0.865 -1.021,1.809 -1.57,2.674 -3.456,6.292 -6.047,13.135 -7.618,20.371 -0.235,1.023 -0.392,2.045 -0.628,3.068 C 473.393,827.955 473,832.438 473,837 h 154 c 0,-4.562 -0.393,-9.124 -1.178,-13.449 -0.157,-1.023 -0.314,-2.045 -0.55,-3.068 z"
     fill="#f4f6d5"
     id="path135" />
  <path
     d="m 779.307,843.259 c -2.447,-11.276 -6.486,-21.94 -11.871,-31.746 -0.734,-1.349 -1.591,-2.819 -2.448,-4.168 -6.241,-10.419 -13.952,-19.734 -22.886,-27.824 -1.102,-1.103 -2.325,-2.084 -3.549,-3.064 -9.546,-7.968 -20.439,-14.464 -32.188,-19.122 -1.469,-0.613 -2.937,-1.103 -4.406,-1.593 -11.749,-4.168 -24.477,-6.497 -37.572,-6.742 -0.735,0 -1.591,0 -2.326,0 -0.734,0 -1.591,0 -2.325,0 -13.218,0.245 -25.824,2.574 -37.573,6.742 -1.468,0.49 -2.937,1.103 -4.406,1.593 -11.749,4.658 -22.641,11.154 -32.187,19.122 -1.224,0.98 -2.448,2.083 -3.55,3.064 -8.934,8.09 -16.767,17.405 -22.886,27.824 -0.857,1.349 -1.591,2.819 -2.448,4.168 -5.385,9.806 -9.423,20.47 -11.871,31.746 -0.367,1.594 -0.612,3.187 -0.979,4.781 C 542.612,854.904 542,861.891 542,869 h 240 c 0,-7.109 -0.612,-14.219 -1.836,-20.96 -0.245,-1.594 -0.489,-3.187 -0.857,-4.781 z"
     fill="#ffffff"
     id="path137" />
  <defs
     id="defs377">
    <linearGradient
       id="paint0_linear"
       x1="892.27197"
       y1="1119.08"
       x2="-93.488503"
       y2="306.26199"
       gradientUnits="userSpaceOnUse">
      <stop
         stop-color="#FFEDBA"
         id="stop139" />
      <stop
         offset="1"
         stop-color="#EE4D47"
         id="stop141" />
    </linearGradient>
    <linearGradient
       id="paint1_linear"
       x1="793"
       y1="990"
       x2="-63.5252"
       y2="258.836"
       gradientUnits="userSpaceOnUse">
      <stop
         stop-color="#FFEDBA"
         id="stop144" />
      <stop
         offset="1"
         stop-color="#EE4D47"
         id="stop146" />
    </linearGradient>
    <linearGradient
       id="paint2_linear"
       x1="865"
       y1="-212"
       x2="865"
       y2="892"
       gradientUnits="userSpaceOnUse">
      <stop
         stop-color="#F4A984"
         id="stop149" />
      <stop
         offset="1"
         stop-color="#F4A984"
         stop-opacity="0"
         id="stop151" />
    </linearGradient>
    <linearGradient
       id="paint3_linear"
       x1="1098.95"
       y1="447.56201"
       x2="1098.95"
       y2="727.31299"
       gradientUnits="userSpaceOnUse">
      <stop
         offset="0.240793"
         stop-color="#2CA77F"
         id="stop154" />
      <stop
         offset="1"
         stop-color="#1B8877"
         id="stop156" />
    </linearGradient>
    <linearGradient
       id="paint4_linear"
       x1="1098.95"
       y1="447.56201"
       x2="1098.95"
       y2="727.31299"
       gradientUnits="userSpaceOnUse">
      <stop
         offset="0.240793"
         stop-color="#2CA77F"
         id="stop159" />
      <stop
         offset="1"
         stop-color="#1B8877"
         id="stop161" />
    </linearGradient>
    <linearGradient
       id="paint5_linear"
       x1="1098.95"
       y1="447.56201"
       x2="1098.95"
       y2="727.31299"
       gradientUnits="userSpaceOnUse">
      <stop
         offset="0.240793"
         stop-color="#2CA77F"
         id="stop164" />
      <stop
         offset="1"
         stop-color="#1B8877"
         id="stop166" />
    </linearGradient>
    <linearGradient
       id="paint6_linear"
       x1="1105.84"
       y1="458.72601"
       x2="1105.84"
       y2="712.86603"
       gradientUnits="userSpaceOnUse">
      <stop
         stop-color="white"
         id="stop169" />
      <stop
         offset="1"
         stop-color="white"
         stop-opacity="0"
         id="stop171" />
    </linearGradient>
    <linearGradient
       id="paint7_linear"
       x1="1216.8199"
       y1="527.67902"
       x2="1216.8199"
       y2="721.40302"
       gradientUnits="userSpaceOnUse">
      <stop
         offset="0.422311"
         stop-color="#2CA77F"
         id="stop174" />
      <stop
         offset="1"
         stop-color="#1B8877"
         id="stop176" />
    </linearGradient>
    <linearGradient
       id="paint8_linear"
       x1="1216.8199"
       y1="527.67902"
       x2="1216.8199"
       y2="721.40302"
       gradientUnits="userSpaceOnUse">
      <stop
         offset="0.422311"
         stop-color="#2CA77F"
         id="stop179" />
      <stop
         offset="1"
         stop-color="#1B8877"
         id="stop181" />
    </linearGradient>
    <linearGradient
       id="paint9_linear"
       x1="1215.84"
       y1="557.22998"
       x2="1215.84"
       y2="715.49298"
       gradientUnits="userSpaceOnUse">
      <stop
         stop-color="white"
         id="stop184" />
      <stop
         offset="1"
         stop-color="white"
         stop-opacity="0"
         id="stop186" />
    </linearGradient>
    <linearGradient
       id="paint10_linear"
       x1="910.47803"
       y1="476.457"
       x2="910.47803"
       y2="768.80298"
       gradientUnits="userSpaceOnUse">
      <stop
         offset="0.422311"
         stop-color="#2CA77F"
         id="stop189" />
      <stop
         offset="1"
         stop-color="#1B8877"
         id="stop191" />
    </linearGradient>
    <linearGradient
       id="paint11_linear"
       x1="910.47803"
       y1="476.457"
       x2="910.47803"
       y2="768.80298"
       gradientUnits="userSpaceOnUse">
      <stop
         offset="0.422311"
         stop-color="#2CA77F"
         id="stop194" />
      <stop
         offset="1"
         stop-color="#1B8877"
         id="stop196" />
    </linearGradient>
    <linearGradient
       id="paint12_linear"
       x1="902.26898"
       y1="534.89697"
       x2="902.26898"
       y2="742.25403"
       gradientUnits="userSpaceOnUse">
      <stop
         stop-color="white"
         id="stop199" />
      <stop
         offset="1"
         stop-color="white"
         stop-opacity="0"
         id="stop201" />
    </linearGradient>
    <linearGradient
       id="paint13_linear"
       x1="1084.16"
       y1="531.01099"
       x2="1084.16"
       y2="590.03003"
       gradientUnits="userSpaceOnUse">
      <stop
         stop-color="#D3D86C"
         id="stop204" />
      <stop
         offset="1"
         stop-color="#82A637"
         id="stop206" />
    </linearGradient>
    <linearGradient
       id="paint14_linear"
       x1="990.59399"
       y1="403.87701"
       x2="990.59399"
       y2="511.918"
       gradientUnits="userSpaceOnUse">
      <stop
         stop-color="#D3D86C"
         id="stop209" />
      <stop
         offset="1"
         stop-color="#82A637"
         id="stop211" />
    </linearGradient>
    <linearGradient
       id="paint15_linear"
       x1="1251.88"
       y1="653.604"
       x2="1251.88"
       y2="671.71399"
       gradientUnits="userSpaceOnUse">
      <stop
         stop-color="#D3D86C"
         id="stop214" />
      <stop
         offset="1"
         stop-color="#82A637"
         id="stop216" />
    </linearGradient>
    <linearGradient
       id="paint16_linear"
       x1="811.784"
       y1="568.39398"
       x2="811.784"
       y2="716.547"
       gradientUnits="userSpaceOnUse">
      <stop
         stop-color="#D3D86C"
         id="stop219" />
      <stop
         offset="1"
         stop-color="#82A637"
         id="stop221" />
    </linearGradient>
    <linearGradient
       id="paint17_linear"
       x1="811.84198"
       y1="604.771"
       x2="811.84198"
       y2="716.547"
       gradientUnits="userSpaceOnUse">
      <stop
         stop-color="#084F15"
         stop-opacity="0"
         id="stop224" />
      <stop
         offset="1"
         stop-color="#084F15"
         id="stop226" />
    </linearGradient>
    <linearGradient
       id="paint18_linear"
       x1="786.70203"
       y1="611.15802"
       x2="786.70203"
       y2="716.66101"
       gradientUnits="userSpaceOnUse">
      <stop
         stop-color="#084F15"
         stop-opacity="0"
         id="stop229" />
      <stop
         offset="1"
         stop-color="#084F15"
         id="stop231" />
    </linearGradient>
    <linearGradient
       id="paint19_linear"
       x1="763.78699"
       y1="630.43402"
       x2="763.78699"
       y2="716.547"
       gradientUnits="userSpaceOnUse">
      <stop
         stop-color="#084F15"
         stop-opacity="0"
         id="stop234" />
      <stop
         offset="1"
         stop-color="#084F15"
         id="stop236" />
    </linearGradient>
    <linearGradient
       id="paint20_linear"
       x1="743.49402"
       y1="659.17603"
       x2="743.49402"
       y2="716.66101"
       gradientUnits="userSpaceOnUse">
      <stop
         stop-color="#084F15"
         stop-opacity="0"
         id="stop239" />
      <stop
         offset="1"
         stop-color="#084F15"
         id="stop241" />
    </linearGradient>
    <linearGradient
       id="paint21_linear"
       x1="722.97198"
       y1="692.48102"
       x2="722.97198"
       y2="716.547"
       gradientUnits="userSpaceOnUse">
      <stop
         stop-color="#084F15"
         stop-opacity="0"
         id="stop244" />
      <stop
         offset="1"
         stop-color="#084F15"
         id="stop246" />
    </linearGradient>
    <linearGradient
       id="paint22_linear"
       x1="836.86603"
       y1="611.15802"
       x2="836.86603"
       y2="716.66101"
       gradientUnits="userSpaceOnUse">
      <stop
         stop-color="#084F15"
         stop-opacity="0"
         id="stop249" />
      <stop
         offset="1"
         stop-color="#084F15"
         id="stop251" />
    </linearGradient>
    <linearGradient
       id="paint23_linear"
       x1="859.83801"
       y1="630.54797"
       x2="859.83801"
       y2="716.66101"
       gradientUnits="userSpaceOnUse">
      <stop
         stop-color="#084F15"
         stop-opacity="0"
         id="stop254" />
      <stop
         offset="1"
         stop-color="#084F15"
         id="stop256" />
    </linearGradient>
    <linearGradient
       id="paint24_linear"
       x1="880.07501"
       y1="659.17603"
       x2="880.07501"
       y2="716.66101"
       gradientUnits="userSpaceOnUse">
      <stop
         stop-color="#084F15"
         stop-opacity="0"
         id="stop259" />
      <stop
         offset="1"
         stop-color="#084F15"
         id="stop261" />
    </linearGradient>
    <linearGradient
       id="paint25_linear"
       x1="935.19702"
       y1="622.38202"
       x2="935.19702"
       y2="716.66101"
       gradientUnits="userSpaceOnUse">
      <stop
         stop-color="#D3D86C"
         id="stop264" />
      <stop
         offset="1"
         stop-color="#82A637"
         id="stop266" />
    </linearGradient>
    <linearGradient
       id="paint26_linear"
       x1="935.31"
       y1="645.604"
       x2="935.31"
       y2="716.66101"
       gradientUnits="userSpaceOnUse">
      <stop
         stop-color="#084F15"
         stop-opacity="0"
         id="stop269" />
      <stop
         offset="1"
         stop-color="#084F15"
         id="stop271" />
    </linearGradient>
    <linearGradient
       id="paint27_linear"
       x1="919.46399"
       y1="649.48199"
       x2="919.46399"
       y2="716.547"
       gradientUnits="userSpaceOnUse">
      <stop
         stop-color="#084F15"
         stop-opacity="0"
         id="stop274" />
      <stop
         offset="1"
         stop-color="#084F15"
         id="stop276" />
    </linearGradient>
    <linearGradient
       id="paint28_linear"
       x1="904.87097"
       y1="661.914"
       x2="904.87097"
       y2="716.66101"
       gradientUnits="userSpaceOnUse">
      <stop
         stop-color="#084F15"
         stop-opacity="0"
         id="stop279" />
      <stop
         offset="1"
         stop-color="#084F15"
         id="stop281" />
    </linearGradient>
    <linearGradient
       id="paint29_linear"
       x1="891.93103"
       y1="680.04901"
       x2="891.93103"
       y2="716.547"
       gradientUnits="userSpaceOnUse">
      <stop
         stop-color="#084F15"
         stop-opacity="0"
         id="stop284" />
      <stop
         offset="1"
         stop-color="#084F15"
         id="stop286" />
    </linearGradient>
    <linearGradient
       id="paint30_linear"
       x1="878.935"
       y1="701.37701"
       x2="878.935"
       y2="716.66101"
       gradientUnits="userSpaceOnUse">
      <stop
         stop-color="#084F15"
         stop-opacity="0"
         id="stop289" />
      <stop
         offset="1"
         stop-color="#084F15"
         id="stop291" />
    </linearGradient>
    <linearGradient
       id="paint31_linear"
       x1="951.271"
       y1="649.71002"
       x2="951.271"
       y2="716.66101"
       gradientUnits="userSpaceOnUse">
      <stop
         stop-color="#084F15"
         stop-opacity="0"
         id="stop294" />
      <stop
         offset="1"
         stop-color="#084F15"
         id="stop296" />
    </linearGradient>
    <linearGradient
       id="paint32_linear"
       x1="965.86499"
       y1="661.914"
       x2="965.86499"
       y2="716.66101"
       gradientUnits="userSpaceOnUse">
      <stop
         stop-color="#084F15"
         stop-opacity="0"
         id="stop299" />
      <stop
         offset="1"
         stop-color="#084F15"
         id="stop301" />
    </linearGradient>
    <linearGradient
       id="paint33_linear"
       x1="978.80402"
       y1="680.16302"
       x2="978.80402"
       y2="716.66101"
       gradientUnits="userSpaceOnUse">
      <stop
         stop-color="#084F15"
         stop-opacity="0"
         id="stop304" />
      <stop
         offset="1"
         stop-color="#084F15"
         id="stop306" />
    </linearGradient>
    <linearGradient
       id="paint34_linear"
       x1="991.802"
       y1="701.37701"
       x2="991.802"
       y2="716.66101"
       gradientUnits="userSpaceOnUse">
      <stop
         stop-color="#084F15"
         stop-opacity="0"
         id="stop309" />
      <stop
         offset="1"
         stop-color="#084F15"
         id="stop311" />
    </linearGradient>
    <linearGradient
       id="paint35_linear"
       x1="319.86899"
       y1="428.78601"
       x2="319.86899"
       y2="897.71698"
       gradientUnits="userSpaceOnUse">
      <stop
         offset="0.278352"
         stop-color="#EEEF99"
         id="stop314" />
      <stop
         offset="0.76976"
         stop-color="#B9D079"
         id="stop316" />
    </linearGradient>
    <linearGradient
       id="paint36_linear"
       x1="319.86899"
       y1="428.78601"
       x2="319.86899"
       y2="897.71698"
       gradientUnits="userSpaceOnUse">
      <stop
         offset="0.278352"
         stop-color="#EEEF99"
         id="stop319" />
      <stop
         offset="0.76976"
         stop-color="#B9D079"
         id="stop321" />
    </linearGradient>
    <linearGradient
       id="paint37_linear"
       x1="716.755"
       y1="713.737"
       x2="716.755"
       y2="926.05298"
       gradientUnits="userSpaceOnUse">
      <stop
         stop-color="white"
         id="stop324" />
      <stop
         offset="1"
         stop-color="white"
         stop-opacity="0"
         id="stop326" />
    </linearGradient>
    <linearGradient
       id="paint38_linear"
       x1="640.78497"
       y1="650.77399"
       x2="640.78497"
       y2="860.992"
       gradientUnits="userSpaceOnUse">
      <stop
         offset="0.164151"
         stop-color="#82A637"
         id="stop329" />
      <stop
         offset="0.890649"
         stop-color="#1B8877"
         id="stop331" />
    </linearGradient>
    <linearGradient
       id="paint39_linear"
       x1="56.584099"
       y1="-96.467598"
       x2="56.6618"
       y2="259.26501"
       gradientUnits="userSpaceOnUse">
      <stop
         stop-color="white"
         id="stop334" />
      <stop
         offset="1"
         stop-color="white"
         stop-opacity="0"
         id="stop336" />
    </linearGradient>
    <linearGradient
       id="paint40_linear"
       x1="86.847603"
       y1="318.444"
       x2="86.847603"
       y2="482.638"
       gradientUnits="userSpaceOnUse">
      <stop
         stop-color="#D3D86C"
         id="stop339" />
      <stop
         offset="1"
         stop-color="#82A637"
         id="stop341" />
    </linearGradient>
    <linearGradient
       id="paint41_linear"
       x1="117"
       y1="646.59302"
       x2="117"
       y2="801.65997"
       gradientUnits="userSpaceOnUse">
      <stop
         stop-color="#D3D86C"
         id="stop344" />
      <stop
         offset="1"
         stop-color="#82A637"
         id="stop346" />
    </linearGradient>
    <linearGradient
       id="paint42_linear"
       x1="210.075"
       y1="684.39697"
       x2="210.075"
       y2="955.89398"
       gradientUnits="userSpaceOnUse">
      <stop
         stop-color="#084F15"
         stop-opacity="0"
         id="stop349" />
      <stop
         offset="1"
         stop-color="#084F15"
         id="stop351" />
    </linearGradient>
    <linearGradient
       id="paint43_linear"
       x1="32.0952"
       y1="638.91199"
       x2="32.0952"
       y2="773.85901"
       gradientUnits="userSpaceOnUse">
      <stop
         offset="0.422311"
         stop-color="#2CA77F"
         id="stop354" />
      <stop
         offset="1"
         stop-color="#1B8877"
         id="stop356" />
    </linearGradient>
    <linearGradient
       id="paint44_linear"
       x1="892.27197"
       y1="464"
       x2="892.27197"
       y2="-228"
       gradientUnits="userSpaceOnUse">
      <stop
         stop-color="#FFEDBA"
         stop-opacity="0"
         id="stop359" />
      <stop
         offset="1"
         stop-color="#EB2A24"
         id="stop361" />
    </linearGradient>
    <linearGradient
       id="paint45_linear"
       x1="974.55402"
       y1="53.4384"
       x2="974.70801"
       y2="405.43799"
       gradientUnits="userSpaceOnUse">
      <stop
         stop-color="white"
         id="stop364" />
      <stop
         offset="1"
         stop-color="white"
         stop-opacity="0"
         id="stop366" />
    </linearGradient>
    <linearGradient
       id="paint46_linear"
       x1="736.45203"
       y1="381.57501"
       x2="736.565"
       y2="639.01099"
       gradientUnits="userSpaceOnUse">
      <stop
         stop-color="white"
         id="stop369" />
      <stop
         offset="1"
         stop-color="white"
         stop-opacity="0"
         id="stop371" />
    </linearGradient>
    <clipPath
       id="clip0">
      <rect
         width="126.085"
         height="112.294"
         fill="#ffffff"
         transform="translate(1188.92,613.706)"
         id="rect374"
         x="0"
         y="0" />
    </clipPath>
  </defs>
<!-- Code injected by live-server -->
<script>
	// <![CDATA[  <-- For SVG support
	if ('WebSocket' in window) {
		(function () {
			function refreshCSS() {
				var sheets = [].slice.call(document.getElementsByTagName("link"));
				var head = document.getElementsByTagName("head")[0];
				for (var i = 0; i < sheets.length; ++i) {
					var elem = sheets[i];
					var parent = elem.parentElement || head;
					parent.removeChild(elem);
					var rel = elem.rel;
					if (elem.href && typeof rel != "string" || rel.length == 0 || rel.toLowerCase() == "stylesheet") {
						var url = elem.href.replace(/(&|\?)_cacheOverride=\d+/, '');
						elem.href = url + (url.indexOf('?') >= 0 ? '&' : '?') + '_cacheOverride=' + (new Date().valueOf());
					}
					parent.appendChild(elem);
				}
			}
			var protocol = window.location.protocol === 'http:' ? 'ws://' : 'wss://';
			var address = protocol + window.location.host + window.location.pathname + '/ws';
			var socket = new WebSocket(address);
			socket.onmessage = function (msg) {
				if (msg.data == 'reload') window.location.reload();
				else if (msg.data == 'refreshcss') refreshCSS();
			};
			if (sessionStorage && !sessionStorage.getItem('IsThisFirstTime_Log_From_LiveServer')) {
				console.log('Live reload enabled.');
				sessionStorage.setItem('IsThisFirstTime_Log_From_LiveServer', true);
			}
		})();
	}
	else {
		console.error('Upgrade your browser. This Browser is NOT supported WebSocket for Live-Reloading.');
	}
	// ]]>
</script>
</svg>
